<svg width="136" height="102" viewBox="0 0 136 102" fill="none" xmlns="http://www.w3.org/2000/svg">
<g id="&#217;&#132;&#217;&#136;&#216;&#172;&#217;&#136; &#217;&#132;&#217;&#136;&#216;&#173;&#216;&#167;&#216;&#170;-01 1" clip-path="url(#clip0_49_1000)">
<path id="Vector" d="M11.2465 88.6145C10.0931 88.4621 8.93977 88.3751 7.80818 88.114C6.37194 87.7875 5.26211 87.0041 4.78336 85.5244C4.47871 84.5886 4.34814 83.6094 4.28286 82.6301L4.30461 82.6083L4.28286 82.5866C4.23934 82.1078 4.21757 81.6291 4.17405 81.1721C4.21757 81.085 4.21757 81.0198 4.15229 80.9545C4.10877 80.2581 4.087 79.5618 4.04348 78.8654C4.087 78.7131 4.087 78.5825 4.02172 78.4302C3.91291 76.9069 3.91292 75.3836 3.95644 73.8603C3.95644 73.6862 3.95644 73.4904 3.95644 73.3163C3.95644 72.9899 3.82587 72.7505 3.54297 72.5546C3.32536 72.4241 3.12951 72.2282 2.93365 72.0541C2.54195 71.7059 2.30258 71.2707 2.21553 70.7702C2.10673 70.0956 1.99792 69.421 1.86735 68.7464C1.86735 68.7464 1.88912 68.7246 1.88912 68.7029C1.88912 68.6811 1.86735 68.6376 1.84559 68.6158C1.80207 68.3982 1.78031 68.1806 1.73678 67.963L1.75855 67.9195L1.73678 67.8759C1.69326 67.6148 1.64974 67.3537 1.62798 67.0925L1.64974 67.0708L1.60621 67.049C1.56269 66.7444 1.54093 66.4179 1.49741 66.1133C1.54093 66.0262 1.54093 65.961 1.47565 65.8957C1.36684 64.8946 1.25804 63.8936 1.12747 62.8926C1.17099 62.8491 1.17099 62.7838 1.10571 62.7403C1.06219 62.3921 1.01866 62.0439 0.996901 61.6957C1.04042 61.6522 1.04042 61.5869 0.996901 61.5434C0.953379 61.1082 0.931618 60.6947 0.888095 60.2595L0.909858 60.216L0.888095 60.1942C0.844572 59.759 0.822811 59.3455 0.779289 58.9103C0.822811 58.8232 0.82281 58.7362 0.757526 58.6709C0.714003 58.3227 0.692242 57.9746 0.648719 57.6264L0.670482 57.6046L0.648719 57.5829C0.474629 55.8637 0.409344 54.1446 0.300538 52.4254C0.34406 52.3601 0.34406 52.2731 0.300538 52.2078C0.126447 48.269 0.0829247 44.3302 0.300538 40.4132C0.300538 40.4132 0.3223 40.3914 0.3223 40.3697C0.3223 40.3479 0.300538 40.3044 0.300538 40.2826C0.34406 39.6951 0.387584 39.1075 0.431107 38.4982L0.452869 38.4764L0.431107 38.4547C0.474629 38.0412 0.518152 37.606 0.539913 37.1925L0.561676 37.1708L0.539913 37.149C0.583436 36.8008 0.626958 36.4744 0.648719 36.1262L0.670482 36.1045L0.648719 36.0827C0.692242 35.7345 0.735766 35.3863 0.779289 35.0599L0.801051 35.0164L0.779289 34.9729C0.822811 34.6682 0.866335 34.3853 0.909858 34.0807L0.931614 34.0371L0.909858 33.9936C0.95338 33.776 0.975141 33.5584 1.01866 33.3625C1.01866 33.3625 1.04042 33.3625 1.04042 33.3408C1.04042 33.319 1.01866 33.2973 1.01866 33.2755C1.06219 33.0144 1.08395 32.7532 1.12747 32.4921L1.17099 32.4703L1.14923 32.4268C1.21451 32.0133 1.30156 31.5781 1.36684 31.1647L1.41036 31.1429L1.3886 31.0994C1.78031 28.7056 2.43314 26.3772 3.23831 24.0922C3.80411 22.4819 4.54399 20.9368 5.56677 19.5659C6.04552 18.9348 6.61132 18.4125 7.22063 17.912C8.35222 16.9545 9.46204 15.9753 10.6807 15.1048C11.0289 14.8654 11.3988 14.6696 11.7905 14.452C12.0734 14.8437 12.3563 15.2136 12.6174 15.6053C13.5096 16.911 14.5324 18.1296 15.5117 19.37C16.0775 20.0882 16.7085 20.741 17.2743 21.4591C18.3624 22.8736 19.7116 24.0705 20.7997 25.4632C21.5178 26.3989 22.3665 27.2259 23.0846 28.1398C23.8027 29.0538 24.6514 29.859 25.4566 30.6859C26.5229 31.7957 27.5022 32.9926 28.5902 34.0807C28.8731 34.3636 29.156 34.6465 29.4389 34.9294C29.8524 35.2993 29.8741 35.4516 29.5912 35.8869C29.526 35.9957 29.4171 36.1045 29.3083 36.2133C28.2638 37.3231 27.241 38.4547 26.1965 39.5427C25.6089 40.1521 24.869 40.5002 24.0203 40.5873C22.9976 40.6961 21.9965 40.5655 20.9955 40.3479C20.7997 40.3044 20.6038 40.2609 20.408 40.2391L20.3862 40.1956L20.3644 40.2174C19.8204 40.1085 19.2764 39.978 18.7541 39.8692C18.7324 39.8256 18.7323 39.8039 18.6888 39.8692C18.4495 39.9127 18.2318 39.8039 18.0142 39.7604C17.0567 39.521 16.0992 39.2816 15.1417 39.0422C13.4226 38.607 11.7035 38.1718 10.0714 37.4972C9.00505 37.062 8.04756 36.4526 7.30768 35.5604C6.63308 34.7553 5.98024 33.9066 5.76262 32.8185L5.78439 32.7967C5.76262 32.775 5.76262 32.7532 5.74086 32.7315C5.58853 32.3615 5.4362 31.9916 5.39268 31.5999L5.41444 31.5781L5.37092 31.5564C5.3274 31.2299 5.30564 30.9253 5.26212 30.5989C5.30564 30.403 5.30564 30.2289 5.24035 30.0331C5.24035 29.7502 5.24035 29.4455 5.26212 29.1626C5.30564 29.0973 5.32739 29.0103 5.28387 28.9232C5.32739 28.5751 5.34916 28.2269 5.39268 27.8787L5.4362 27.8569L5.41444 27.8134C5.45796 27.5088 5.50149 27.2041 5.52325 26.8994L5.54501 26.8559L5.52325 26.8124C5.56677 26.5948 5.61029 26.3772 5.63205 26.1596L5.65382 26.116L5.63205 26.0725C5.67558 25.8549 5.69734 25.659 5.74086 25.4414L5.76262 25.4197C5.76262 25.3979 5.74086 25.3762 5.74086 25.3544C5.78438 25.1368 5.80614 24.8974 5.84967 24.6798C5.93671 24.4839 5.98023 24.2663 5.95847 24.0487C6.06728 23.3088 6.43722 22.656 6.69836 21.9596C6.82892 21.5897 7.02478 21.2415 7.17711 20.8716C7.43824 20.4581 7.67761 20.0229 7.67761 19.5006C7.32943 19.8053 7.02477 20.1317 6.80716 20.5234C6.76364 20.5887 6.72012 20.6539 6.6766 20.7192C5.47973 22.286 4.73984 24.0922 4.13053 25.9419C3.89115 26.6601 3.78234 27.3999 3.54297 28.1181C3.17303 29.3367 3.0207 30.5989 2.80309 31.861L2.75957 31.8828L2.78132 31.9263C2.69428 32.4703 2.629 33.0144 2.54195 33.5584L2.52019 33.5802L2.54195 33.6019C2.36786 34.5812 2.25906 35.5604 2.19377 36.5397L2.17201 36.5615L2.19377 36.5832C2.15025 37.0837 2.10673 37.5842 2.08497 38.0847L2.0632 38.1065L2.08497 38.1283C2.04144 38.6941 1.99792 39.2381 1.97616 39.8039C1.93264 39.9562 1.91087 40.1085 1.9544 40.2609C1.91087 41.0008 1.88911 41.7406 1.84559 42.4588C1.80207 42.6328 1.78031 42.8287 1.82383 43.0246C1.6715 46.4411 1.86735 49.8358 2.08497 53.2524L2.0632 53.2741L2.08497 53.2959C2.12849 53.8399 2.17201 54.3839 2.21553 54.928L2.19377 54.9497L2.21553 54.9715C2.25906 55.4285 2.28082 55.8855 2.32434 56.3425L2.30258 56.386L2.32434 56.4077C2.36786 56.7559 2.41139 57.0823 2.43315 57.4305L2.41139 57.474L2.43315 57.4958C2.47667 57.844 2.49843 58.1922 2.54195 58.5403C2.49843 58.6274 2.49843 58.6927 2.56371 58.7797C2.60723 59.0626 2.62899 59.3238 2.67252 59.6067L2.65076 59.6284L2.67252 59.6502C2.71604 60.0419 2.75956 60.4118 2.78132 60.8035L2.75957 60.8253L2.78132 60.847C2.82485 61.2388 2.84661 61.6305 2.89013 62.0004C2.84661 62.0439 2.84661 62.0874 2.89013 62.131C2.93365 62.4356 2.95541 62.762 2.99894 63.0667C2.95541 63.1102 2.95541 63.1755 3.0207 63.219C3.15127 64.4594 3.34712 65.6998 3.54297 66.9402C3.63001 67.4842 3.67354 68.05 3.73883 68.5941L3.71706 68.6158L3.73883 68.6376C3.78235 69.1381 3.84763 69.6386 3.84763 70.1391C3.86939 70.4438 3.9782 70.6614 4.17405 70.879C4.76161 71.4666 5.45797 71.88 6.21961 72.2282C8.72216 73.3598 11.3118 74.2302 13.9449 75.0137C15.8816 75.5794 17.8401 76.1017 19.7987 76.5152C20.7997 76.7328 21.8442 76.8634 22.8452 77.0592L22.8888 77.081L22.9323 77.0592C24.4991 77.4074 25.9789 77.1898 27.4151 76.4499C29.1125 75.5577 30.7664 74.5567 32.3984 73.5774C33.9217 72.6634 35.5756 72.2064 37.2947 71.9671C40.189 71.5754 43.0832 71.7277 45.9993 71.8583C46.0645 71.9018 46.1516 71.9018 46.2169 71.8583C49.1329 71.9888 52.0707 72.0976 54.9867 72.2282L55.0084 72.25L55.0302 72.2282C60.5358 72.4241 66.0632 72.5764 71.5688 72.5329C75.9645 72.4893 80.3386 72.2935 84.7343 72.1412C87.1063 72.0541 89.4565 71.9671 91.8285 71.88C91.872 71.9235 91.9156 71.9235 91.9591 71.88C93.9176 71.793 95.8761 71.6624 97.8564 71.7712C99.2709 71.8583 100.685 71.9453 102.078 72.337C103.014 72.5982 103.863 73.0334 104.689 73.5121C106.365 74.4696 108.041 75.4924 109.695 76.5152C110.652 77.1245 111.697 77.2768 112.806 77.2333C114.09 77.1898 115.352 76.9069 116.593 76.6457C117.986 76.3411 119.378 76.0364 120.749 75.6665C122.577 75.1877 124.362 74.5567 126.168 73.9909C127.756 73.4904 129.28 72.8158 130.781 72.1412C131.391 71.8583 131.869 71.3795 132.37 70.966C132.522 70.8355 132.566 70.6614 132.587 70.4873C132.609 70.2479 132.631 70.0085 132.653 69.7692L132.674 69.7474L132.653 69.7039C132.762 68.6811 132.892 67.6583 133.001 66.6356L133.023 66.6138L133.001 66.592C133.284 64.4812 133.414 62.3703 133.61 60.2595L133.632 60.2377L133.61 60.216C133.654 59.7372 133.675 59.2802 133.719 58.8015C133.719 58.7797 133.741 58.7797 133.741 58.758C133.741 58.7144 133.719 58.6927 133.719 58.6492C133.763 58.2575 133.784 57.8658 133.828 57.4958L133.85 57.474L133.828 57.4305C133.871 56.9083 133.893 56.4077 133.937 55.8855C133.98 55.8202 133.98 55.7331 133.937 55.6679C134.176 51.7944 134.22 47.9208 134.154 44.0473C134.132 43.438 134.111 42.8069 134.067 42.1976C134.132 41.98 134.111 41.7842 134.045 41.5665C134.002 41.0008 133.98 40.4567 133.937 39.8909C133.98 39.7386 133.98 39.5645 133.915 39.4122C133.893 39.1293 133.871 38.8682 133.828 38.5853C133.871 38.4112 133.85 38.2588 133.784 38.0847C133.741 37.7801 133.719 37.4537 133.675 37.149C133.675 37.149 133.697 37.149 133.697 37.1272C133.675 37.1055 133.675 37.0837 133.654 37.0837C133.61 36.8226 133.588 36.5397 133.545 36.2786C133.588 36.1915 133.588 36.1045 133.523 36.0392C133.48 35.7345 133.458 35.4081 133.414 35.1034L133.436 35.0817L133.393 35.0599C133.349 34.8423 133.327 34.6247 133.284 34.4071C133.327 34.3418 133.327 34.2983 133.262 34.2548C133.197 33.8631 133.11 33.4713 133.044 33.0796C133.088 33.0144 133.088 32.9708 133.023 32.9273C132.892 32.0133 132.805 31.0994 132.544 30.2072C132.065 28.4663 131.739 26.6818 131.086 24.9844C130.651 23.8311 130.15 22.7213 129.519 21.6767C129.149 21.0674 128.823 20.4146 128.366 19.8705C128.257 19.74 128.192 19.6094 128.018 19.5006C127.974 19.7617 128.192 19.8923 128.279 20.0664C129.04 22.0467 129.846 24.0269 130.237 26.1378L130.215 26.1596L130.259 26.1813C130.433 27.6611 130.607 29.1409 130.411 30.6206C130.215 32.0786 129.911 33.4931 129.04 34.7335C128.213 35.9086 127.125 36.7791 125.841 37.3666C125.363 37.5842 124.84 37.606 124.34 37.8236C122.795 38.4982 121.119 38.6941 119.509 39.151C118.377 39.4775 117.246 39.7168 116.092 39.978C114.939 40.2173 113.764 40.435 112.589 40.5002C111.61 40.5438 110.739 40.2174 109.956 39.6733C109.433 39.3251 108.976 38.8899 108.585 38.4112C107.91 37.5842 107.17 36.8226 106.474 36.0392C106.322 35.8651 106.169 35.6692 106.039 35.4734C105.952 35.3428 105.908 35.234 106.039 35.1034C107.17 34.1677 107.997 32.9273 109.063 31.9263C109.477 31.5346 109.847 31.0558 110.239 30.6424C111.762 28.9668 113.263 27.2694 114.787 25.6155C115.548 24.7886 116.375 24.0269 117.006 23.0912C117.202 22.7866 117.463 22.5254 117.724 22.286C117.812 22.199 117.899 22.112 117.964 22.0249C119.248 20.197 120.793 18.5431 122.207 16.824C122.795 16.1058 123.274 15.2789 123.839 14.539C123.97 14.3649 124.013 14.3214 124.209 14.4737C125.123 15.2136 126.059 15.9317 126.995 16.6281C127.822 17.2374 128.583 17.912 129.301 18.6301C130.259 19.6094 131.021 20.741 131.586 22.0031C132.022 22.9606 132.392 23.9617 132.74 24.9627C133.131 26.029 133.414 27.1171 133.675 28.2269C134.067 29.8155 134.459 31.404 134.72 33.0144L134.698 33.0361L134.742 33.0579C134.785 33.319 134.807 33.5802 134.851 33.8413L134.829 33.8631L134.851 33.8848C134.894 34.1459 134.916 34.4071 134.959 34.6682L134.938 34.69L134.981 34.7117C135.068 35.2775 135.133 35.8651 135.221 36.4309L135.199 36.4744L135.221 36.5179C135.264 36.8661 135.308 37.2143 135.329 37.5625C135.329 37.5842 135.308 37.5842 135.308 37.606C135.308 37.6495 135.329 37.6713 135.351 37.7148C135.395 37.9977 135.416 38.2588 135.46 38.5417C135.416 38.5853 135.416 38.6505 135.482 38.6941C135.917 43.7427 135.939 48.7695 135.721 53.8182C135.678 54.8627 135.634 55.9072 135.59 56.93L135.569 56.9518L135.59 56.9735C135.503 57.9093 135.438 58.8668 135.351 59.8025L135.329 59.8243L135.351 59.846C135.308 60.303 135.264 60.7818 135.242 61.2388L135.221 61.2605L135.242 61.2823C135.199 61.9133 135.155 62.5227 135.133 63.1537L135.112 63.1755L135.133 63.1973C135.09 63.6107 135.046 64.046 135.025 64.4594L135.003 64.4812L135.025 64.5029C134.829 66.4397 134.633 68.3765 134.35 70.2915C134.241 71.0313 134.024 71.7495 133.327 72.1847C133.11 72.3153 133.11 72.5329 133.088 72.7722C133.066 73.708 133.023 74.6655 133.023 75.6012C133.023 77.8209 132.87 80.0405 132.718 82.2602C132.653 83.3047 132.522 84.3275 132.174 85.3285C131.695 86.83 130.651 87.657 129.171 87.9399C127.974 88.1792 126.755 88.288 125.537 88.4186L125.515 88.3968L125.493 88.4186C123.644 88.5492 121.816 88.5927 119.966 88.5274C118.769 88.4839 117.899 87.9181 117.442 86.8083C117.246 86.3295 117.246 85.8073 117.224 85.285C117.18 83.9793 117.246 82.6736 117.311 81.368C117.355 80.4757 117.355 79.5618 117.333 78.6695C116.963 78.5825 116.68 78.7131 116.397 78.7784C114.613 79.2136 112.785 79.4747 110.978 79.7576C110.391 79.8447 109.782 79.8447 109.172 79.8882C107.823 79.997 106.648 79.6053 105.538 78.8872C105.016 78.539 104.494 78.1908 103.971 77.8861C102.709 77.1245 101.382 76.6022 99.8367 76.6022C87.6068 76.6457 75.377 76.624 63.1471 76.624C55.4872 76.624 47.8272 76.624 40.1672 76.624C39.1009 76.624 38.0346 76.624 36.9901 76.624C36.4025 76.624 35.8585 76.7763 35.3145 77.0157C34.2699 77.4944 33.2907 78.0602 32.3114 78.6478C31.7238 78.996 31.1145 79.3006 30.527 79.627C30.0917 79.8664 29.613 79.8882 29.1125 79.8882C28.2638 79.8882 27.4369 79.8011 26.5882 79.7359L26.5664 79.7141L26.5447 79.7359C26.2835 79.6923 26.0224 79.6706 25.7613 79.627L25.7395 79.6053L25.7177 79.627C25.2172 79.54 24.7167 79.4747 24.2162 79.3877L24.1944 79.3659L24.1727 79.3877C23.7157 79.3006 23.2369 79.2353 22.78 79.1483L22.7582 79.1265L22.7364 79.1483C22.5623 79.1048 22.3665 79.083 22.1924 79.0395L22.1706 79.0177L22.1489 79.0395C21.7136 78.9307 21.2567 78.8001 20.8214 78.6913C20.6038 78.626 20.408 78.5607 20.1686 78.6043C20.0163 78.9089 20.1033 79.2353 20.1033 79.5618C20.1468 81.542 20.2121 83.5223 20.1468 85.5026C20.1251 85.9813 20.038 86.4601 19.8639 86.9171C19.4722 87.9834 18.7323 88.5492 17.6008 88.5492C15.8163 88.5709 14.0319 88.6145 12.2475 88.5057C11.9428 88.4839 11.6382 88.4621 11.3553 88.4621C11.3335 88.5927 11.29 88.5927 11.2465 88.6145ZM16.121 24.6363C16.121 24.658 16.1428 24.658 16.1428 24.6798L16.1645 24.7015C16.1645 24.6798 16.1428 24.658 16.121 24.6363ZM16.6868 25.3326C16.5997 25.1585 16.4909 24.9844 16.208 24.8321C16.3604 25.1368 16.4474 25.3544 16.6215 25.5067C17.6878 27.0953 18.8194 28.6621 20.1033 30.0766C20.5821 30.5989 21.039 31.1646 21.5396 31.6869C22.1924 32.3833 22.8452 33.1014 23.6504 33.6019C23.6939 33.6454 23.7157 33.7542 23.781 33.6454C23.8027 33.6019 23.7592 33.5584 23.6939 33.5366C23.6939 33.3843 23.5851 33.319 23.4981 33.2537C22.6276 32.5356 21.866 31.7304 21.2784 30.7729C20.9738 30.2507 20.4733 29.9025 20.0598 29.4455C18.8847 28.1181 17.8184 26.7036 16.6868 25.3326ZM111.153 32.7315C110.674 33.1449 110.195 33.5802 109.89 34.1677C110.391 33.776 110.913 33.3843 111.283 32.862C112.045 32.231 112.632 31.404 113.437 30.7947C113.807 30.5118 113.982 30.0548 114.286 29.7066C115.396 28.488 116.441 27.2259 117.355 25.8767C117.724 25.3761 118.116 24.8974 118.356 24.3098C117.855 24.6798 117.572 25.2238 117.202 25.7243C116.397 26.5948 115.701 27.5305 114.852 28.3574C114.7 28.5098 114.547 28.6839 114.439 28.858C113.633 30.0113 112.654 31.0123 111.697 32.0133C111.457 32.2527 111.261 32.4486 111.153 32.7315ZM14.6848 39.3904C13.2267 38.6288 11.7035 38.0195 10.2019 37.3884C9.39676 37.0402 8.65687 36.5615 8.04756 35.9957C7.11182 35.1252 6.21961 34.1677 5.69734 32.9491C5.65382 32.8403 5.58853 32.7097 5.4362 32.6879C5.39268 32.8185 5.45796 32.9273 5.50148 33.0361C5.74086 33.8631 6.1108 34.6247 6.48074 35.4081C7.15534 36.8879 8.1346 38.1065 9.8755 38.4329C9.94079 38.4547 9.98431 38.4764 10.0496 38.4764C10.8983 38.7811 11.7687 38.9552 12.6392 39.1728C13.3138 39.3251 14.0102 39.3904 14.6848 39.5427C14.75 39.5645 14.7936 39.5427 14.7936 39.4775C14.7936 39.4339 14.7718 39.3904 14.6848 39.3904ZM119.552 39.3687C119.465 39.3904 119.378 39.3904 119.422 39.521C119.422 39.5427 119.574 39.5645 119.596 39.4557C119.901 39.4557 120.183 39.3904 120.466 39.3469C121.816 39.064 123.143 38.7376 124.47 38.3459C125.058 38.1718 125.646 37.9324 126.124 37.5189C127.212 36.605 127.843 35.4081 128.235 34.0807C128.387 33.6019 128.583 33.1232 128.649 32.5574C128.562 32.6444 128.496 32.6879 128.496 32.7315C128.235 33.6454 127.561 34.2983 126.995 35.0164C126.19 36.0827 125.08 36.8008 123.883 37.3013C122.381 37.8889 120.989 38.7158 119.552 39.3687ZM112.306 39.2816C113.894 38.4547 115.396 37.5189 116.876 36.5179C115.701 36.2133 114.569 35.9739 113.416 36.4744C112.893 36.692 112.371 36.8879 111.871 37.1055C110.696 37.6495 109.455 37.9324 108.149 37.8671C107.997 37.8671 107.845 37.8018 107.693 37.9759C107.997 38.2371 108.28 38.52 108.672 38.5635C109.216 38.6505 109.695 38.8899 110.195 39.1075C110.326 39.1728 110.456 39.1728 110.587 39.1946H110.609C110.804 39.2381 110.978 39.2598 111.174 39.3034C111.196 39.3469 111.218 39.3687 111.261 39.3251C111.392 39.3251 111.544 39.3251 111.675 39.3251C111.892 39.4557 112.11 39.5427 112.306 39.2816ZM26.3706 37.9324C26.1094 37.9324 25.8483 37.9324 25.5872 37.9324C23.9768 37.8889 22.4971 37.4101 21.0608 36.7355C20.0163 36.235 18.95 36.0609 17.8184 36.3003C17.5572 36.3656 17.2743 36.3221 16.9914 36.5397C17.4484 36.8661 17.8619 37.1708 18.2971 37.4537C19.3199 38.1718 20.5168 38.5635 21.5396 39.2599C21.7354 39.3904 21.9965 39.3904 22.2359 39.3687C23.3675 39.3034 24.3685 38.8682 25.3913 38.4764C25.7612 38.3459 26.1312 38.2588 26.3706 37.9324C26.3706 37.9759 26.3923 37.9759 26.3923 37.9324C26.3923 37.9324 26.3923 37.9324 26.3706 37.9324ZM123.274 19.6529L123.252 19.6747L123.274 19.7182C123.317 19.9141 123.295 20.0882 123.23 20.2622L123.208 20.284C123.23 20.3058 123.23 20.3275 123.252 20.3493C123.556 21.3285 124.166 22.1337 124.862 22.8301C125.167 23.1347 125.428 23.4612 125.537 23.9834C125.058 23.8093 124.666 23.57 124.209 23.657C123.665 23.7876 123.121 23.8746 122.599 24.114C122.381 24.2228 122.164 24.3316 121.99 24.5057C120.575 25.8114 119.857 27.4 120.009 29.3367C120.075 30.3377 120.445 31.2517 121.25 31.9263C121.859 32.4268 122.577 32.7532 123.361 32.5356C124.253 32.2962 125.08 31.9263 125.624 31.0776C125.907 30.6424 126.19 30.2072 126.451 29.7502C127.082 28.5968 127.299 27.3347 126.995 26.0943C126.647 24.6363 126.233 23.2 125.406 21.9161C124.949 21.2197 124.47 20.5669 123.926 19.9576C123.752 19.7617 123.6 19.4788 123.274 19.6529ZM8.33045 24.0487C8.28693 24.0269 8.24341 24.0052 8.22165 23.9617C8.61335 23.3088 9.11386 22.7213 9.65789 22.199C10.2454 21.6332 10.5283 20.9151 10.8112 20.1752C10.8983 19.9576 10.9201 19.7182 10.8112 19.5224C10.6589 19.5224 10.5719 19.5876 10.5066 19.6529C9.96255 20.2187 9.39676 20.7628 8.89625 21.3503C8.37398 21.9596 8.0258 22.6995 7.7429 23.4394C7.52529 24.0269 7.41648 24.658 7.24239 25.2891C6.48074 27.9222 7.24239 30.1419 9.17915 31.8393C10.0061 32.5574 11.377 32.775 12.4216 32.1221C13.5749 31.404 13.9884 30.2942 14.0972 29.0538C14.2495 27.0735 12.8786 24.4404 10.5501 23.7658C9.96255 23.5917 9.35323 23.5264 8.78744 23.8529C8.61335 23.9399 8.46102 24.0052 8.33045 24.0487Z" fill="#132344"/>
<path id="Vector_2" d="M41.5164 53.5352C41.2988 51.2503 41.0812 48.9871 40.8636 46.7022C40.8418 46.4845 40.8201 46.2669 40.8201 46.0493C40.8636 45.9405 40.8636 45.8099 40.7983 45.7011C40.7766 45.2877 40.7548 44.896 40.7113 44.4825C40.7548 44.0255 40.7113 43.5903 40.5372 43.1551C40.4719 42.8286 40.3413 42.6546 39.9714 42.7634C39.7755 42.8286 39.5797 42.8504 39.4056 42.8722C39.188 42.9157 39.1227 43.068 39.1227 43.2421L39.1009 43.2639L39.1227 43.2856C39.1227 43.525 39.1227 43.7644 39.1227 43.982C39.0792 44.0908 39.0792 44.2214 39.1445 44.3302C39.188 44.6131 39.2097 44.896 39.2533 45.1571C39.2097 45.2224 39.2097 45.2659 39.275 45.3094C39.3185 45.6576 39.3403 46.0276 39.3838 46.3757C39.3403 46.4628 39.3403 46.5281 39.4056 46.6151C39.4491 46.9851 39.4709 47.3332 39.5144 47.7032C39.4709 47.7902 39.4709 47.8555 39.5362 47.9425C39.5797 48.3778 39.6232 48.813 39.645 49.27C39.645 49.2918 39.6232 49.2917 39.6232 49.3135C39.6232 49.3353 39.645 49.3788 39.6667 49.4006C39.6885 49.7705 39.732 50.1187 39.7538 50.4886C39.7103 50.6409 39.7102 50.815 39.7755 50.9674C39.7973 51.2503 39.8408 51.5332 39.8626 51.8161C39.8191 51.9031 39.8191 51.9901 39.8843 52.0554C39.9931 53.2523 40.102 54.4709 40.2325 55.6678C40.189 55.7549 40.189 55.8201 40.2543 55.9072C40.2978 56.1901 40.3413 56.473 40.3631 56.7341C40.3196 56.8212 40.3196 56.9082 40.3848 56.9952C40.4066 57.3652 40.4501 57.7351 40.4719 58.1051C40.4284 58.2574 40.4284 58.4097 40.4937 58.5621C40.5372 58.932 40.5589 59.3019 40.6025 59.6501C40.5589 59.7372 40.5589 59.8242 40.6242 59.8895C40.733 61.2169 40.8418 62.5226 40.9506 63.8501C40.9071 63.8936 40.9071 63.9371 40.9506 63.9806C40.9942 64.3723 41.0159 64.7858 41.0595 65.1775C41.0159 65.2645 41.0159 65.3298 41.0812 65.4169C41.1247 65.7215 41.1465 66.0479 41.19 66.3526L41.1683 66.3744L41.2118 66.3961C41.2118 66.7008 41.4294 67.0054 41.2335 67.3101C41.19 67.2666 41.1247 67.2666 41.0812 67.3101C40.7983 67.2666 40.5154 67.2448 40.2543 67.2013C40.1455 67.136 40.0367 67.136 39.9061 67.1795C39.5362 67.136 39.188 67.1142 38.818 67.0707C38.7745 67.0272 38.731 67.0054 38.6875 67.049C38.3393 67.0054 37.9911 66.9837 37.6429 66.9402L37.6212 66.8966L37.5994 66.9184C37.2295 67.0054 36.9683 66.7443 36.6419 66.6573C35.9891 66.4832 35.3362 66.2873 34.7704 65.8521C34.0741 65.3081 33.3995 64.764 33.0078 63.9371C32.7684 63.4583 32.3767 63.0666 32.072 62.6097C30.6358 60.5859 29.4607 58.4315 28.4814 56.1683C27.9592 54.9497 27.9592 53.7311 28.5685 52.5124C29.3084 51.0544 30.2006 49.7052 31.1798 48.3995C32.2896 46.898 33.53 45.5053 34.8575 44.1996C36.3155 42.7634 38.0346 41.8059 40.0802 41.3924C41.7993 41.0442 43.5402 40.8048 45.2811 40.5437C45.6076 40.5002 45.9557 40.4567 46.2822 40.4131L46.3039 40.4349L46.3257 40.3914C48.5453 40.152 50.7867 40.0214 53.0064 39.9126L53.0282 39.9344L53.0499 39.8909C53.6375 39.8473 54.225 39.8256 54.8126 39.7821C54.8561 39.8256 54.8996 39.8256 54.9432 39.7821C55.7918 39.7385 56.6405 39.7168 57.4892 39.6733C57.9244 39.7168 58.3379 39.7168 58.7731 39.6515C59.4913 39.6297 60.2311 39.5862 60.9493 39.5645C60.9928 39.608 61.0363 39.608 61.0798 39.5645C62.3638 39.6297 63.6477 39.608 64.9098 39.8909C65.4538 40.0214 65.9761 40.2173 66.4549 40.5219C67.1512 40.9354 67.5212 41.5883 67.717 42.3499C67.8476 42.8939 67.8258 43.4597 67.8258 44.0255C67.8041 47.2027 67.7823 50.4016 67.7606 53.5787C67.7606 56.6688 67.7823 59.7589 67.7823 62.8273C67.7823 64.4158 67.7605 65.9827 67.8476 67.5712C67.8694 68.0935 67.8476 68.1153 67.3253 68.1153C65.9326 68.1153 64.5181 68.0935 63.1254 68.05C59.97 67.9847 56.7929 67.9194 53.6375 67.8541C53.0934 67.8324 53.0934 67.8324 52.9411 67.3536C52.9846 67.2013 52.9846 67.0272 52.9194 66.8749C52.7235 63.0449 52.5059 59.1931 52.31 55.3632C52.1577 52.5995 52.0054 49.8358 51.8966 47.0939C51.8313 45.5488 51.8313 44.0038 51.7442 42.4805C51.679 41.4794 51.6137 41.4142 50.6344 41.5012C50.4603 41.523 50.2645 41.4794 50.1557 41.6753L50.1339 41.6971C50.1339 41.7188 50.1557 41.7406 50.1557 41.7623C50.1557 42.0017 50.1557 42.2411 50.1557 42.4805C50.1121 42.6328 50.1121 42.7851 50.1774 42.9157C50.2209 43.6556 50.2427 44.3737 50.2862 45.1136C50.2427 45.2006 50.2427 45.2659 50.2862 45.3312C50.4386 48.5519 50.5909 51.7725 50.7432 54.9932C50.6997 55.1455 50.6997 55.2979 50.765 55.4502C50.8085 55.9072 50.8303 56.3424 50.8738 56.7994C50.8303 56.9082 50.8303 57.017 50.8956 57.1258C50.9391 57.7786 50.9608 58.4315 51.0044 59.0843C50.9608 59.1496 50.9608 59.2367 51.0261 59.3019C51.0696 60.0418 51.0914 60.7817 51.1349 61.4998C51.0914 61.6304 51.0914 61.7827 51.1349 61.9133C51.2873 63.676 51.2002 65.4604 51.3743 67.2448C51.4178 67.7018 51.3525 67.7453 50.8738 67.7453C49.1982 67.7018 47.5226 67.6365 45.8469 67.4842C45.8034 67.4407 45.7599 67.4407 45.7164 67.4842C45.1506 67.4407 44.5848 67.4189 44.019 67.3754C43.8667 67.3319 43.7361 67.2883 43.5838 67.3319C43.3661 67.2883 43.1268 67.3754 42.9744 67.1578C42.9527 66.3308 42.8221 65.5039 42.7133 64.677C42.648 63.8283 42.5175 62.9578 42.4739 62.1091C42.4304 61.2822 42.3434 60.477 42.2781 59.6501C42.3216 59.5631 42.3216 59.4978 42.2563 59.4107C42.2128 59.1278 42.191 58.8232 42.1475 58.5403C42.191 58.4315 42.191 58.3227 42.1257 58.2139C42.0822 57.8439 42.0605 57.474 42.0169 57.1041C42.0605 57.017 42.0605 56.9517 41.9952 56.8864C41.9517 56.6035 41.9299 56.3206 41.8864 56.016C41.9299 55.9507 41.9299 55.8637 41.8646 55.7984C41.8211 55.472 41.7993 55.1455 41.7558 54.8191C41.7993 54.7538 41.7993 54.6668 41.734 54.6015C41.6905 54.2751 41.6688 53.9487 41.6252 53.6222C41.5817 53.6875 41.5817 53.6005 41.5164 53.5352Z" fill="#132344"/>
<path id="Vector_3" d="M82.5583 48.4648C82.5148 49.2482 82.4712 50.0098 82.4495 50.7715C82.406 50.8803 82.4059 50.9891 82.4277 51.0979C82.3842 52.0336 82.3624 52.9476 82.3189 53.8833C82.3189 53.8833 82.2971 53.9051 82.2971 53.9269C82.2971 53.9486 82.3189 53.9921 82.3189 54.0139C82.2754 54.7755 82.2536 55.5372 82.2101 56.2988C82.1666 56.3641 82.1666 56.4512 82.2101 56.5164C82.1666 57.2128 82.1448 57.9092 82.1013 58.6055C82.0578 58.7796 82.0578 58.9755 82.1013 59.1496C82.0578 59.9765 82.0142 60.7817 81.9925 61.5868C81.949 61.6521 81.949 61.7391 81.9925 61.8044C81.9054 63.3277 81.8402 64.8728 81.7531 66.3961C81.7096 66.4614 81.7096 66.5484 81.7531 66.6137C81.7531 66.9401 81.7314 67.2883 81.6878 67.6147C81.6661 67.8976 81.5355 67.9846 81.2744 67.9846C80.5562 68.0064 79.8599 68.0282 79.1418 68.0717L79.12 68.0499L79.0982 68.0935C75.9428 68.224 72.8092 68.224 69.6538 68.224C69.1533 68.224 69.1533 68.2023 69.1533 67.7453C69.2839 61.0863 69.2404 54.4274 69.2404 47.7902C69.2404 46.3104 69.2839 44.8306 69.2404 43.3509C69.2186 41.8493 69.9585 40.9136 71.2642 40.326C71.9388 40.0431 72.6351 39.8908 73.3532 39.8473C76.2475 39.6732 79.12 39.8038 81.9925 39.9996C82.9717 40.0649 83.951 40.1302 84.9303 40.1955C86.5406 40.3043 88.1509 40.5001 89.7613 40.6742C90.4141 40.696 91.0669 40.8265 91.7198 40.9136L91.7415 40.9571L91.7633 40.9354C93.4172 41.153 95.0928 41.4141 96.7031 41.8493C98.2917 42.2628 99.6409 43.1115 100.838 44.2213C103.275 46.5498 105.408 49.1176 107.04 52.0554C107.127 52.2077 107.214 52.3818 107.279 52.5341C107.823 53.6222 107.932 54.7538 107.562 55.9289C107.257 56.8646 106.866 57.7786 106.387 58.6273C105.908 59.4542 105.408 60.2811 104.907 61.1081C104.211 62.2614 103.493 63.393 102.709 64.4811C102.209 65.1774 101.578 65.7868 100.816 66.222C99.9891 66.7007 99.0751 66.9401 98.1394 67.0707C97.0078 67.223 95.8762 67.31 94.7228 67.4189L94.7011 67.3971L94.6793 67.4406C94.4399 67.4406 94.2223 67.4406 93.983 67.4406C93.9394 67.3536 93.8959 67.2665 93.8741 67.1795C93.9177 66.9401 93.9394 66.7225 93.983 66.4831C94.0482 66.3743 94.0482 66.2655 94.0047 66.1349C94.0265 65.852 94.07 65.5691 94.0918 65.2645C94.157 65.1122 94.157 64.9598 94.1135 64.8075C94.1353 64.3505 94.1788 63.8935 94.2006 63.4583C94.2659 63.306 94.2658 63.1536 94.2223 63.0013C94.2658 62.6749 94.2876 62.3485 94.3311 62.022C94.3964 61.9568 94.3964 61.8697 94.3529 61.7827C94.3746 61.4563 94.4182 61.1516 94.4399 60.8252C94.5052 60.7381 94.5052 60.6511 94.4617 60.564C94.5052 60.2159 94.527 59.8459 94.5705 59.4977C94.6358 59.4107 94.6358 59.3454 94.5923 59.2584C94.6358 58.8884 94.6576 58.5402 94.7011 58.1703C94.7446 58.1268 94.7664 58.0833 94.7228 58.018C94.7664 57.6698 94.7881 57.2998 94.8316 56.9517C94.8752 56.9081 94.8752 56.8646 94.8534 56.8211C94.8969 56.5164 94.9187 56.19 94.9622 55.8854C95.0275 55.8418 95.0275 55.7983 94.9622 55.7548C95.071 54.6014 95.2016 53.4263 95.3104 52.273C95.3539 52.2077 95.3757 52.1207 95.3321 52.0554C95.3757 51.6854 95.3974 51.3373 95.441 50.9673C95.441 50.9673 95.4627 50.9455 95.4627 50.9238C95.4627 50.8803 95.4627 50.8585 95.441 50.815C95.4845 50.4233 95.5062 50.0098 95.5498 49.6181C95.5498 49.6181 95.5715 49.5964 95.5715 49.5746C95.5715 49.5311 95.5498 49.5093 95.5498 49.4875C95.5933 49.0523 95.6368 48.6171 95.6586 48.1819C95.6586 48.1819 95.6803 48.1601 95.6803 48.1383C95.6803 48.1166 95.6586 48.0731 95.6586 48.0513C95.7021 47.6596 95.7456 47.2461 95.7674 46.8544C95.7674 46.8544 95.7891 46.8327 95.7891 46.8109C95.7891 46.7891 95.7674 46.7456 95.7674 46.7239C95.8109 46.3539 95.8327 46.0057 95.8762 45.6576C95.8762 45.6576 95.8979 45.6358 95.8979 45.614C95.8979 45.5705 95.8762 45.5488 95.8762 45.527C95.9197 45.2223 95.9415 44.8959 95.985 44.5913C96.0503 44.5477 96.0503 44.5042 96.0068 44.4389C96.0068 44.3519 96.0068 44.2866 96.0503 44.1995C96.2679 43.5249 96.1808 43.3291 95.5498 42.9156V42.8939H95.528C94.6793 42.6763 94.5705 42.7415 94.4835 43.612C94.4182 44.3301 94.3747 45.0265 94.3094 45.7446L94.2659 45.7664L94.2876 45.7881C94.2441 46.2451 94.2006 46.7239 94.1788 47.1808L94.1353 47.2026L94.157 47.2244C94.1135 47.6161 94.07 47.986 94.0482 48.3777L94.0047 48.3995L94.0265 48.4212C93.9829 48.8129 93.9394 49.1829 93.9177 49.5746L93.8741 49.5964L93.8959 49.6181C93.8524 49.9663 93.8089 50.3145 93.7871 50.6409L93.7436 50.6627L93.7653 50.6844C93.6783 51.5113 93.613 52.36 93.526 53.187C93.526 53.2087 93.5042 53.2087 93.5042 53.2305C93.5042 53.274 93.526 53.2958 93.526 53.3175C93.4824 53.6657 93.4607 54.0139 93.4172 54.3621L93.3736 54.3838L93.3954 54.4056C93.3519 54.8626 93.3084 55.3413 93.2866 55.7983L93.2648 55.8201L93.2866 55.8418C93.2431 56.2335 93.2213 56.6035 93.1778 56.9952L93.1343 57.0169L93.156 57.0387C93.1125 57.3869 93.069 57.7351 93.0472 58.0615L93.0037 58.0833L93.0255 58.105C92.9819 58.4532 92.9384 58.8014 92.9166 59.1496C92.9166 59.1496 92.8949 59.1713 92.8949 59.1931C92.8949 59.2148 92.9166 59.2584 92.9166 59.2801C92.8731 59.5848 92.8514 59.8894 92.8078 60.2159L92.7643 60.2376L92.7861 60.2594C92.7426 60.6511 92.699 61.0646 92.6773 61.4563C92.6338 61.5215 92.612 61.6086 92.6555 61.6956C92.612 62.0656 92.5902 62.4137 92.5467 62.7837C92.5032 62.936 92.5032 63.0666 92.5249 63.2189C92.4814 63.5671 92.4597 63.8935 92.4161 64.2417C92.3509 64.3505 92.3508 64.4593 92.3944 64.5681C92.3726 64.8075 92.3291 65.0469 92.3073 65.2862C92.3073 65.2862 92.2856 65.308 92.2856 65.3298C92.2856 65.3733 92.2856 65.3951 92.3073 65.4386C92.2638 65.9173 92.2421 66.3743 92.1985 66.8531L92.155 66.8748L92.1768 66.8966C92.1768 66.9619 92.155 67.0271 92.155 67.0707C92.1768 67.3536 92.0462 67.4624 91.7415 67.5059C90.0006 67.7453 88.2597 67.7235 86.5188 67.8323C86.4753 67.7888 86.4318 67.7888 86.3883 67.8323C85.8442 67.8541 85.3002 67.9846 84.7562 67.9411C84.3427 67.9629 83.9075 67.9846 83.494 67.9846C83.037 67.9846 83.037 67.9846 83.0588 67.5059C83.0805 67.1577 83.1023 66.8313 83.1241 66.4831C83.2764 63.9153 83.2982 61.3475 83.494 58.8014C83.5593 58.6055 83.5593 58.4314 83.5158 58.2356C83.6246 55.8854 83.7334 53.5569 83.8422 51.2067C83.8857 51.0761 83.8857 50.9238 83.864 50.7932C83.9075 50.0533 83.951 49.3135 83.9728 48.5736C84.0163 48.3995 84.038 48.2036 83.9945 48.0295C84.0163 47.3767 84.0598 46.7021 84.0816 46.0493C84.1251 45.9405 84.1251 45.8534 84.0816 45.7446C84.1251 45.0482 84.1469 44.3519 84.1904 43.6555C84.2339 43.5902 84.2339 43.5249 84.1904 43.4379C84.2121 43.0462 84.2557 42.6327 84.2774 42.241C84.2992 41.9581 84.2774 41.697 83.8857 41.7188C83.8204 41.7188 83.7551 41.6317 83.6681 41.6317C82.7541 41.5012 82.6236 41.5229 82.6236 42.4586C82.6453 44.3954 82.4712 46.3322 82.3624 48.2689C82.5148 48.3124 82.5148 48.3777 82.5583 48.4648Z" fill="#132344"/>
<path id="Vector_4" d="M3.97826 65.1993C3.91298 64.0459 3.86945 62.8926 3.97826 61.7392L4.00002 61.7175L3.97826 61.6957C4.00002 61.3475 4.04355 60.9776 4.06531 60.6294C4.1306 60.5641 4.13059 60.4988 4.08707 60.4118C4.13059 60.1289 4.15235 59.8678 4.19587 59.5849L4.21764 59.5631L4.19587 59.5413C4.26116 58.9103 4.47878 58.3445 4.71815 57.7569C5.1969 56.6471 6.04559 56.0378 7.2207 55.8419C8.26524 55.6678 9.30978 55.7331 10.3326 55.9072C11.3989 56.0813 12.4652 56.3424 13.5532 56.5383C15.1636 56.8429 16.7521 57.2564 18.3407 57.6481C20.1469 58.0833 21.779 58.932 23.4111 59.7807C24.151 60.1724 24.8473 60.6512 25.4567 61.2387C25.3914 61.2605 25.3696 61.304 25.3696 61.3693C24.7385 61.1517 24.1727 60.8253 23.5417 60.6294C22.6277 60.3465 21.6919 60.1071 20.7345 60.0201C20.6256 60.0201 20.5386 59.9983 20.408 60.0854C20.4733 60.4335 20.7562 60.6512 21.0174 60.8252C21.9096 61.4781 22.6712 62.2833 23.4329 63.0667C24.608 64.3288 25.8701 65.5039 27.067 66.7443C28.0463 67.7671 29.0255 68.8116 30.0048 69.8344C30.0918 69.9432 30.1788 70.052 30.2659 70.1608C30.3747 70.3349 30.3529 70.4655 30.1571 70.6178C29.2214 71.2707 28.3509 72.0106 27.3934 72.6199C26.6535 73.0769 25.9789 73.5991 25.2608 74.0779C24.1292 74.8613 22.8453 75.2312 21.4743 75.253C20.8868 75.253 20.321 75.1877 19.7334 75.0789C17.2744 74.6219 14.8589 74.0344 12.4652 73.2945C11.2901 72.9463 10.1367 72.5546 8.98336 72.1846C9.00512 72.1411 9.02688 72.0758 9.04865 72.0323C10.8331 72.2934 12.6393 72.4023 14.4019 72.8375C14.2496 72.7722 14.119 72.6634 13.9667 72.6199C12.8133 72.2717 11.7253 71.7277 10.5284 71.5536C10.3326 71.5318 10.1585 71.423 9.98438 71.3577C9.13569 71.0531 8.30876 70.7266 7.46007 70.422C6.89427 70.2044 6.39377 69.8779 5.89326 69.5515C5.06633 69.0293 4.71815 68.1588 4.36997 67.3101C4.30468 67.136 4.26116 66.9619 4.21764 66.7878L4.2394 66.7443L4.21764 66.7008C4.17411 66.5049 4.13059 66.3309 4.08707 66.135C4.13059 66.0915 4.1306 66.048 4.06531 66.0044C4.04355 65.7651 4.00002 65.5257 3.97826 65.3081C4.04355 65.2863 4.04355 65.2428 3.97826 65.1993Z" fill="#132344"/>
<path id="Vector_5" d="M115.026 59.9112C114.895 59.9329 114.743 59.9547 114.613 59.9765C114.547 59.9329 114.482 59.9329 114.438 59.9982C113.263 60.3029 112.023 60.3246 110.913 60.8251C110.565 60.9775 110.217 61.1951 109.738 61.2168C109.934 60.934 110.195 60.7816 110.434 60.6293C112.197 59.4107 114.09 58.3879 116.179 57.8003C119.248 56.9299 122.338 56.1465 125.515 55.7548C126.342 55.646 127.191 55.6242 128.018 55.8636C129.497 56.3206 130.281 57.4086 130.564 58.8449C130.759 59.8241 130.868 60.8251 130.934 61.8262C130.89 61.9132 130.89 61.9785 130.955 62.0438C131.086 63.4147 130.977 64.7639 130.825 66.1131L130.781 66.1349L130.803 66.1567C130.759 67.0924 130.39 67.8976 129.933 68.681C129.693 69.0944 129.323 69.4209 128.91 69.682C127.8 70.4219 126.516 70.8136 125.276 71.2053C123.883 71.6405 122.468 72.0104 121.119 72.5762C121.032 72.5762 120.945 72.598 120.945 72.7068C120.945 72.7286 121.032 72.7503 121.097 72.7068C121.837 72.598 122.577 72.4892 123.317 72.3804C123.339 72.4239 123.361 72.4239 123.382 72.3804C124.318 72.2716 125.232 72.0322 126.19 72.0757C125.776 72.2281 125.363 72.4022 124.927 72.5327C122.49 73.3161 120.009 73.9907 117.529 74.5783C117.246 74.6436 116.985 74.8177 116.658 74.7741C116.049 74.9047 115.44 75.0353 114.83 75.1223C113.35 75.3399 111.958 75.0353 110.696 74.2301C108.781 73.0332 106.909 71.7493 105.212 70.2478C105.19 70.226 105.19 70.2043 105.19 70.1607C108.367 66.7007 111.675 63.3495 115.091 60.0853C115.222 60.0635 115.331 59.9547 115.287 59.8676C115.265 59.7806 115.113 59.8241 115.026 59.9112Z" fill="#132344"/>
<path id="Vector_6" d="M39.7103 70.8354C39.4274 70.7919 39.1445 70.7701 38.8833 70.7266C38.8398 70.6613 38.7963 70.6613 38.731 70.7048C38.5569 70.6613 38.3611 70.6396 38.187 70.596L38.1652 70.5525L38.1434 70.5743C37.9258 70.5308 37.7082 70.509 37.4906 70.4655L37.4471 70.4437L37.4036 70.4655C36.4461 70.1608 35.5321 69.7256 34.6181 69.3339C34.3134 69.2033 34.0306 68.9857 33.7694 68.7681C32.2461 67.4842 30.8969 66.0697 29.8959 64.307C29.2431 63.1537 28.5032 62.0221 27.8068 60.8905C27.5457 60.4553 27.3063 60.02 27.1975 59.5195C28.1768 60.8687 29.2213 62.1744 30.3094 63.4366C31.0928 64.3505 31.8109 65.3516 32.8119 66.0697C33.2254 66.3743 33.5736 66.766 34.0088 67.0489C34.7052 67.5059 35.4668 67.8106 36.2937 67.9194C36.3155 67.9629 36.359 67.9847 36.4025 67.9412C36.6201 67.9847 36.8378 68.0282 37.0554 68.05L37.0989 68.0717L37.1424 68.05C37.4036 68.0935 37.6429 68.1152 37.9041 68.1588L37.9258 68.2023L37.9476 68.1805C38.2958 68.2241 38.644 68.2676 38.9921 68.3111C39.0357 68.3546 39.1009 68.3764 39.1445 68.3329C39.4926 68.3764 39.8191 68.3981 40.1672 68.4417L40.189 68.4634L40.2108 68.4417C40.646 68.4852 41.0812 68.5069 41.5164 68.5505C41.5817 68.594 41.6688 68.594 41.734 68.5505C42.2781 68.594 42.8439 68.6375 43.3879 68.6593L43.4097 68.7028L43.4314 68.681C43.9537 68.7246 44.4542 68.7681 44.9765 68.7898C45.0635 68.8334 45.1288 68.8551 45.2159 68.8116C45.7381 68.8551 46.2604 68.8769 46.7609 68.9204C46.8044 68.9639 46.848 68.9639 46.8915 68.9204C50.8956 69.1815 54.8996 69.3121 58.9037 69.4427C60.3617 69.4862 61.8197 69.4862 63.2995 69.508C68.3046 69.5733 73.3097 69.5515 78.3148 69.3992C81.1873 69.3121 84.0815 69.1598 86.954 69.051C87.041 69.0945 87.1063 69.0945 87.1934 69.051C87.3892 69.051 87.5633 69.0292 87.7592 69.0292C88.2597 69.0075 88.7384 68.9639 89.2389 68.9422L89.2607 68.9639L89.2825 68.9204C89.6959 68.8769 90.1312 68.8551 90.5446 68.8116L90.5664 68.8334L90.5881 68.8116C91.6544 68.7246 92.7425 68.6593 93.8088 68.5722C93.8523 68.6158 93.8959 68.6158 93.9394 68.5505C94.4399 68.5069 94.9622 68.4634 95.4627 68.4417L95.4844 68.4634L95.5062 68.4199C95.8544 68.3764 96.2026 68.3546 96.529 68.3111C96.616 68.3546 96.7031 68.3546 96.7901 68.2893C98.2264 68.1805 99.6408 67.9412 101.012 67.4406C101.164 67.3754 101.316 67.3536 101.447 67.2448C102.6 66.3961 103.797 65.5692 104.624 64.3505C104.646 64.3288 104.646 64.3288 104.668 64.307C105.995 63.0449 106.887 61.4345 108.041 60.02C108.15 59.8895 108.237 59.7807 108.367 59.6066C108.324 59.933 108.193 60.1724 108.019 60.3682C107.431 61.1516 107.214 62.1527 106.496 62.8708C106.409 62.9578 106.343 63.0666 106.343 63.1972C106.278 63.7195 105.995 64.1329 105.669 64.5029C105.386 64.8293 105.168 65.1775 104.994 65.5692C104.689 66.2438 104.08 66.679 103.623 67.223C102.078 69.051 100.011 69.965 97.7694 70.5743C97.1818 70.7266 96.5725 70.7484 95.9849 70.8136L95.9632 70.7919L95.9414 70.8354C95.2668 70.9007 94.5922 70.9877 93.9394 71.053C93.8523 71.0095 93.7653 71.0095 93.7 71.0748C93.2648 71.1183 92.8078 71.1401 92.3726 71.1836C92.2855 71.1401 92.1985 71.1401 92.1332 71.2053C91.7415 71.2489 91.3498 71.2706 90.9363 71.3142C90.8928 71.2706 90.8275 71.2706 90.784 71.3359C90.3705 71.3794 89.9788 71.4012 89.5654 71.4447C89.413 71.4012 89.2607 71.4012 89.1084 71.4665C88.5426 71.51 87.9768 71.5318 87.411 71.5753C87.3022 71.5318 87.1716 71.5318 87.0628 71.597C86.2141 71.6406 85.3654 71.6623 84.5385 71.7059C84.4515 71.6623 84.3862 71.6623 84.2991 71.7059C72.461 72.2281 60.6229 72.1193 48.7847 71.597C48.6759 71.5535 48.5671 71.5318 48.4365 71.5753C47.8272 71.5318 47.2397 71.51 46.6303 71.4665C46.5868 71.423 46.5433 71.4012 46.478 71.4665C45.9993 71.423 45.5205 71.4012 45.0418 71.3577C44.9547 71.3142 44.8894 71.2924 44.8024 71.3359C44.3672 71.2924 43.9102 71.2706 43.475 71.2271C43.3661 71.1618 43.2356 71.1401 43.105 71.2053C42.7351 71.1836 42.3869 71.1401 42.0169 71.1183C41.9081 71.053 41.7776 71.0313 41.647 71.0965C41.4294 71.0748 41.19 71.053 40.9724 71.0095C40.8418 70.9442 40.7113 70.9225 40.5589 70.966C40.3196 70.9442 40.0802 70.9007 39.8408 70.8789C39.8843 70.7919 39.7973 70.7919 39.7103 70.8354Z" fill="#132344"/>
<path id="Vector_7" d="M65.0839 89.5066C64.9751 89.746 64.8881 89.9853 64.7793 90.2247C64.6705 90.4423 64.6487 90.7035 64.3876 90.8123C63.9523 90.1159 63.9523 90.1159 63.9741 88.462C63.3648 88.919 62.886 89.4631 62.3855 90.1594C62.2332 88.919 62.6902 88.0921 63.4953 87.3522C62.8425 87.2434 62.429 87.7222 61.885 87.5698C62.255 86.5471 63.2342 86.2642 64.1699 85.8072C63.713 85.5243 63.343 85.7419 62.9731 85.5678C63.1254 85.1979 63.5389 84.9585 63.7565 84.9802C64.5399 85.0673 65.3233 84.6973 66.1067 85.002C66.2373 85.0455 66.4113 85.0455 66.5419 85.002C67.26 84.7409 67.8258 85.002 68.3916 85.5896C67.9782 85.6113 67.63 85.6548 67.0642 85.6984C68.0217 86.3077 69.1315 86.4382 69.3927 87.6134C68.9357 87.5046 68.4569 87.374 67.9782 87.2652C68.5875 88.0921 69.1315 88.8973 68.9574 90.0289C68.3264 89.6154 67.9782 88.919 67.3471 88.4185C67.2818 89.2672 67.5865 90.1159 66.8683 90.7905C66.5202 90.3988 66.4766 89.8765 66.0632 89.5066C66.0632 89.8983 66.0632 90.3118 66.0632 90.7035C66.0632 92.1397 66.0632 93.5542 66.0632 94.9904C66.0632 95.2951 66.0414 95.665 65.6932 95.6868C65.258 95.7086 65.258 95.3169 65.258 94.9904C65.258 93.1625 65.258 91.3563 65.258 89.5284C65.1927 89.5284 65.1274 89.5284 65.0839 89.5066Z" fill="black"/>
<path id="Vector_8" d="M63.3431 97.667C63.9741 97.8193 64.4964 97.6887 64.8664 97.1447C65.0622 96.8618 65.084 96.7095 64.8228 96.4701C63.4736 95.2079 62.0156 94.0981 60.1224 93.7499C59.796 93.6847 59.4696 93.6629 59.0126 93.5758C59.5784 93.293 60.0353 93.2712 60.5141 93.3147C62.342 93.4888 63.8001 94.4028 65.0187 95.7085C65.5192 96.2525 65.8021 96.1872 66.2808 95.6867C67.3689 94.5551 68.6093 93.6629 70.2196 93.4018C70.8725 93.293 71.5035 93.1842 72.2434 93.5541C71.5906 93.6847 71.0248 93.7717 70.4808 93.924C68.8704 94.3593 67.6083 95.382 66.4332 96.5136C66.2808 96.666 66.1285 96.7965 66.3244 96.9924C66.629 97.2753 66.6725 97.8846 67.2601 97.754C67.4777 97.7105 67.6736 97.6235 67.9565 97.754C67.7824 98.0152 67.2383 98.1892 67.7606 98.6027C68.2176 98.9727 68.6528 99.3208 69.2621 98.9726C69.4362 98.8856 69.5668 98.5374 69.8062 98.7986C70.0238 99.0379 69.8497 99.3208 69.6756 99.5384C69.3057 99.9954 68.8052 99.9737 68.3264 99.7778C68.0435 99.669 67.7606 99.4732 67.543 99.2556C67.2819 99.0162 67.086 98.755 66.6943 99.0597C66.542 99.1903 66.3461 99.0815 66.2591 98.9074C66.172 98.7333 66.3461 98.7333 66.4549 98.6898C66.7596 98.6027 66.6943 98.4504 66.542 98.2545C66.4549 98.1675 66.3896 98.0587 66.3026 97.9934C66.0632 97.7758 65.8674 97.2753 65.5192 97.4711C65.1492 97.667 64.8881 98.0804 64.6052 98.4069C64.5182 98.5157 64.5835 98.6245 64.714 98.6898C64.8446 98.755 65.1275 98.7115 64.9534 98.9944C64.8664 99.125 64.627 99.212 64.4747 99.0815C64.1047 98.755 63.9306 99.0815 63.6913 99.2556C63.256 99.582 62.8208 99.8649 62.2332 99.8649C61.798 99.8649 61.6022 99.6255 61.4498 99.3208C61.3628 99.1467 61.2975 98.9291 61.4498 98.7768C61.6457 98.6027 61.7327 98.8421 61.8851 98.9074C62.4509 99.2338 63.3213 98.9727 63.6695 98.3851C63.9741 97.9499 63.3431 98.0369 63.3431 97.667Z" fill="black"/>
<path id="Vector_9" d="M107.192 85.7203C107.17 85.7856 107.149 85.8509 107.105 85.9162C107.083 85.9815 107.062 86.0468 106.996 86.0685C106.887 85.8944 106.887 85.8944 106.887 85.4374C106.735 85.568 106.605 85.6986 106.474 85.8944C106.43 85.568 106.561 85.3504 106.779 85.1545C106.605 85.1328 106.496 85.2634 106.343 85.2198C106.43 84.9369 106.692 84.8716 106.953 84.7628C106.844 84.6976 106.735 84.7411 106.626 84.6976C106.67 84.6105 106.779 84.5452 106.844 84.5452C107.062 84.567 107.257 84.4799 107.475 84.5452C107.518 84.567 107.562 84.567 107.584 84.5452C107.78 84.4799 107.932 84.5452 108.063 84.6976C107.954 84.6976 107.867 84.7193 107.714 84.7193C107.975 84.8934 108.258 84.9152 108.324 85.2198C108.193 85.1981 108.084 85.1545 107.954 85.1328C108.128 85.3504 108.258 85.568 108.215 85.8727C108.041 85.7639 107.954 85.5898 107.78 85.4374C107.758 85.6551 107.845 85.8944 107.649 86.0685C107.562 85.9597 107.54 85.8291 107.431 85.7203C107.431 85.8291 107.431 85.938 107.431 86.0468C107.431 86.4167 107.431 86.8084 107.431 87.1783C107.431 87.2654 107.431 87.3524 107.323 87.3524C107.214 87.3524 107.214 87.2436 107.214 87.1566C107.214 86.6778 107.214 86.1991 107.214 85.6986C107.236 85.7203 107.214 85.7203 107.192 85.7203Z" fill="black"/>
<path id="Vector_10" d="M106.735 87.8746C106.909 87.9182 107.04 87.8746 107.148 87.7441C107.192 87.6788 107.214 87.6353 107.127 87.57C106.757 87.2436 106.387 86.9389 105.886 86.8519C105.799 86.8301 105.712 86.8301 105.582 86.8083C105.734 86.7213 105.843 86.7213 105.973 86.743C106.452 86.7866 106.844 87.0259 107.17 87.3741C107.301 87.5265 107.388 87.5047 107.497 87.3741C107.78 87.0695 108.106 86.8301 108.541 86.7648C108.715 86.743 108.889 86.6995 109.085 86.8083C108.911 86.8519 108.759 86.8736 108.606 86.8954C108.171 87.0042 107.845 87.2871 107.54 87.5917C107.497 87.6353 107.453 87.6788 107.518 87.7223C107.605 87.7876 107.605 87.9617 107.78 87.9182C107.845 87.8964 107.888 87.8746 107.954 87.9182C107.91 87.9834 107.758 88.027 107.91 88.1358C108.041 88.2446 108.149 88.3316 108.302 88.2446C108.345 88.2228 108.389 88.1358 108.454 88.2011C108.519 88.2663 108.476 88.3316 108.411 88.3969C108.302 88.5275 108.171 88.5057 108.062 88.4622C107.975 88.4404 107.91 88.3751 107.845 88.3316C107.78 88.2663 107.714 88.2011 107.627 88.2881C107.584 88.3316 107.54 88.2881 107.518 88.2446C107.497 88.2011 107.54 88.2011 107.562 88.1793C107.649 88.1575 107.627 88.114 107.584 88.0705C107.562 88.0487 107.54 88.027 107.518 88.0052C107.453 87.9399 107.41 87.8094 107.301 87.8746C107.192 87.9182 107.127 88.027 107.061 88.114C107.04 88.1358 107.061 88.1793 107.083 88.2011C107.127 88.2228 107.192 88.2011 107.148 88.2881C107.127 88.3316 107.061 88.3534 107.018 88.3099C106.909 88.2228 106.866 88.3099 106.8 88.3534C106.691 88.4404 106.561 88.5275 106.409 88.5057C106.3 88.5057 106.235 88.4404 106.191 88.3534C106.169 88.3099 106.147 88.2446 106.191 88.2011C106.235 88.1575 106.278 88.2228 106.3 88.2446C106.452 88.3316 106.67 88.2663 106.779 88.114C106.909 87.9617 106.735 87.9834 106.735 87.8746Z" fill="black"/>
<path id="Vector_11" d="M44.2585 96.7532C44.2585 97.5148 44.2367 98.2765 44.2585 99.0381C44.2585 99.408 44.1496 99.5604 43.7579 99.5604C43.3445 99.5604 43.3445 99.321 43.3445 99.0381C43.3445 98.0588 43.3227 97.0796 43.3662 96.0786C43.388 95.5345 43.2792 95.2734 42.6916 95.5781C42.5393 95.6433 42.3652 95.6869 42.1911 95.6869C42.0388 95.7086 41.9953 95.5563 41.9953 95.4257C41.9735 95.1863 41.9953 94.9905 42.2782 94.9034C42.7569 94.7511 43.1704 94.49 43.5186 94.12C43.6927 93.946 43.8667 93.8371 44.1061 93.9242C44.3455 94.033 44.2585 94.2506 44.2585 94.4465C44.2585 95.2299 44.2585 95.9915 44.2585 96.7532Z" fill="black"/>
<path id="Vector_12" d="M42.9744 85.1108C43.7143 87.1346 44.2148 89.0061 43.2573 90.9429C43.1485 90.0507 43.2138 89.1584 42.9744 88.288C42.8656 87.9398 42.8221 87.5481 42.6698 87.2435C42.2563 86.5036 42.5174 85.8942 42.9744 85.1108Z" fill="black"/>
<g id="Group">
<path id="Vector_13" d="M28.3291 101.693H107.78C109.172 101.693 110.304 100.562 110.304 99.1688V86.1991C110.304 84.8064 109.172 83.6748 107.78 83.6748H28.3291C26.9364 83.6748 25.8048 84.8064 25.8048 86.1991V99.1688C25.8048 100.562 26.9364 101.693 28.3291 101.693Z" stroke="black" stroke-miterlimit="10"/>
</g>
<path id="Vector_14" d="M104.407 83.6094V101.715" stroke="black" stroke-width="2" stroke-miterlimit="10"/>
<g id="Group_2">
<path id="Vector_15" d="M89.8265 89.8113C89.3478 90.0289 88.8037 90.203 88.1944 90.29C87.5851 90.3988 86.9323 90.4424 86.2359 90.4641C86.1489 90.4641 86.0618 90.4641 85.9748 90.4641C85.8877 90.4641 85.8224 90.4641 85.7354 90.4641C85.6266 90.4641 85.5178 90.4424 85.3872 90.3988C85.2567 90.3553 85.1261 90.3118 84.9738 90.2683C84.8214 90.2248 84.6908 90.1595 84.5603 90.0942C84.4297 90.0289 84.2991 89.9636 84.1686 89.8983C84.1468 89.8766 84.1251 89.8548 84.1033 89.833C84.0815 89.8113 84.0815 89.7678 84.0815 89.7025C84.0815 89.6154 84.1033 89.5719 84.1468 89.5719C84.1686 89.5719 84.2339 89.5719 84.3427 89.5937C84.4515 89.6154 84.5603 89.6154 84.7344 89.6372C84.8867 89.659 85.0826 89.659 85.3002 89.6807C85.5178 89.7025 85.7572 89.7025 86.0183 89.7025L86.3012 89.3543C86.3229 89.3325 86.3447 89.289 86.3447 89.2455C86.3665 89.202 86.3665 89.1367 86.3665 89.0932C86.3665 89.0279 86.3882 88.9844 86.3882 88.9191C86.3882 88.8538 86.3882 88.8103 86.3882 88.745C86.3665 88.5709 86.3665 88.3533 86.3447 88.1139C86.3229 87.8745 86.3012 87.6352 86.2794 87.374C86.2577 87.1129 86.2359 86.8735 86.2141 86.6341C86.1924 86.3948 86.1706 86.1772 86.1706 86.0031C86.1706 85.9378 86.1706 85.8943 86.1489 85.829C86.1271 85.7637 86.1489 85.7202 86.1489 85.6766C86.1053 85.6114 86.0618 85.5461 86.0401 85.4808C86.0183 85.4155 85.9965 85.3285 85.9965 85.2632C85.9965 85.1979 85.9965 85.1544 86.0183 85.0891C86.0401 85.0238 86.0618 84.9585 86.1053 84.8932C86.1489 84.8279 86.1706 84.7627 86.2141 84.6974C86.2577 84.6321 86.3012 84.5668 86.3447 84.5015C86.3665 84.4798 86.3882 84.458 86.3882 84.458C86.41 84.458 86.4318 84.4798 86.4318 84.5015C86.4318 84.5668 86.4535 84.6103 86.4535 84.6756C86.4753 84.7191 86.497 84.7844 86.5188 84.828C86.5406 84.8715 86.5841 84.9368 86.6494 85.002C86.6929 85.0673 86.7799 85.1326 86.8452 85.1979C86.8887 85.2414 86.9105 85.2632 86.9323 85.3067C86.954 85.3285 86.954 85.372 86.954 85.3937C86.954 85.4373 86.954 85.4808 86.9323 85.5461C86.9105 85.6114 86.8887 85.6549 86.867 85.7202C86.8452 85.7637 86.8017 85.829 86.7799 85.8725C86.7364 85.916 86.7147 85.9378 86.6711 85.9595C86.6711 86.1336 86.6929 86.3295 86.6929 86.5471C86.7147 86.7647 86.7146 86.9606 86.7364 87.1782C86.7582 87.3958 86.7582 87.5916 86.7799 87.8092C86.7799 88.0051 86.8017 88.2009 86.8017 88.375C86.8017 88.4621 86.8017 88.5491 86.7799 88.6579C86.7799 88.745 86.7582 88.832 86.7364 88.9191C86.9105 88.745 87.0846 88.5709 87.2804 88.3968C87.4763 88.2227 87.6722 88.0486 87.8898 87.8963C88.1074 87.744 88.325 87.6134 88.5426 87.5264C88.7602 87.4393 88.9778 87.374 89.1954 87.374C89.3478 87.374 89.5001 87.4175 89.6742 87.4828C89.8265 87.5481 89.9788 87.6352 90.1094 87.744C90.24 87.8528 90.3488 87.9833 90.4358 88.1139C90.5229 88.2445 90.5664 88.375 90.5664 88.5056C90.5664 88.6362 90.5446 88.7667 90.5229 88.8973C90.4794 89.0279 90.4358 89.1584 90.3705 89.2673C90.3053 89.3761 90.2182 89.5066 90.1312 89.6154C90.0224 89.6372 89.9353 89.7242 89.8265 89.8113ZM86.5841 89.6372C87.0411 89.6372 87.4545 89.5937 87.8245 89.5501C88.2162 89.5066 88.5426 89.4413 88.8473 89.3761C89.1519 89.3108 89.3913 89.2237 89.5871 89.1149C89.783 89.0061 89.9353 88.9191 90.0224 88.8103C90.0006 88.745 89.9788 88.6579 89.9136 88.5709C89.8483 88.4838 89.7612 88.3968 89.6742 88.3098C89.5654 88.2227 89.4566 88.1574 89.326 88.0921C89.1954 88.0269 89.0431 88.0051 88.8908 88.0051C88.7167 88.0051 88.5426 88.0486 88.3468 88.1357C88.1509 88.2227 87.955 88.3315 87.7592 88.4838C87.5633 88.6362 87.3457 88.8103 87.1499 89.0061C86.954 89.202 86.7799 89.4413 86.5841 89.6372Z" fill="black"/>
</g>
<g id="Group_3">
<path id="Vector_16" d="M89.4783 95.4476C89.3913 95.0341 89.3042 94.8165 89.1954 94.686C89.0649 94.4901 88.9125 94.4248 88.2814 94.4248H87.6939V98.5377C87.6939 99.1905 87.7809 99.2776 88.5643 99.3429V99.5823H86.1053V99.3429C86.867 99.2776 86.9322 99.2123 86.9322 98.5377V94.4248H86.4317C85.7136 94.4248 85.5613 94.4901 85.4307 94.686C85.3219 94.8165 85.2566 95.0777 85.1696 95.4476H84.9084C84.952 94.9253 84.9955 94.3813 85.0173 93.9243H85.1913C85.3219 94.1202 85.409 94.1202 85.6701 94.1202H89.0431C89.2607 94.1202 89.3478 94.0766 89.4783 93.9243H89.6524C89.6524 94.316 89.6959 94.9471 89.7395 95.4258L89.4783 95.4476Z" fill="black"/>
</g>
<g id="Group_4">
<path id="Vector_17" d="M106.648 92.7926V90.6382H107.083V91.5957L107.954 90.6382H108.541L107.736 91.4651L108.585 92.7708H108.019L107.431 91.7698L107.083 92.118V92.7708H106.648V92.7926Z" fill="black"/>
</g>
<g id="Group_5">
<path id="Vector_18" d="M106.604 95.8826L107.018 95.8391C107.04 95.9914 107.105 96.0784 107.17 96.1437C107.257 96.209 107.344 96.2525 107.475 96.2525C107.606 96.2525 107.714 96.2308 107.801 96.1655C107.867 96.1002 107.91 96.0349 107.91 95.9479C107.91 95.9044 107.888 95.8608 107.867 95.8173C107.845 95.7738 107.78 95.752 107.714 95.7303C107.671 95.7085 107.54 95.6867 107.366 95.6432C107.127 95.5779 106.974 95.5127 106.887 95.4256C106.757 95.3168 106.692 95.1645 106.692 94.9904C106.692 94.8816 106.713 94.7728 106.779 94.6857C106.844 94.5987 106.931 94.5116 107.04 94.4681C107.149 94.4246 107.301 94.4028 107.453 94.4028C107.714 94.4028 107.932 94.4681 108.062 94.5769C108.193 94.6857 108.28 94.8598 108.28 95.0557L107.845 95.0774C107.823 94.9686 107.78 94.8816 107.736 94.8381C107.671 94.7945 107.584 94.7728 107.453 94.7728C107.323 94.7728 107.236 94.7945 107.149 94.8598C107.105 94.9033 107.083 94.9469 107.083 94.9904C107.083 95.0339 107.105 95.0774 107.149 95.121C107.214 95.1645 107.344 95.208 107.54 95.2733C107.758 95.3168 107.91 95.3821 108.019 95.4256C108.128 95.4691 108.193 95.5562 108.258 95.6432C108.324 95.7303 108.345 95.8391 108.345 95.9914C108.345 96.122 108.302 96.2308 108.237 96.3396C108.171 96.4484 108.062 96.5354 107.954 96.579C107.823 96.6225 107.671 96.666 107.497 96.666C107.236 96.666 107.018 96.6007 106.866 96.4701C106.713 96.3178 106.626 96.122 106.604 95.8826Z" fill="black"/>
</g>
<g id="Group_6">
<path id="Vector_19" d="M108.585 100.322H108.106L107.91 99.8431H107.062L106.887 100.322H106.43L107.257 98.1675H107.714L108.585 100.322ZM107.78 99.4732L107.475 98.668L107.192 99.4732H107.78Z" fill="black"/>
</g>
<g id="Group_7">
<path id="Vector_20" d="M105.712 89.5938H105.603C105.582 89.5938 105.56 89.5938 105.56 89.572C105.538 89.5503 105.495 89.5285 105.473 89.485C105.451 89.4197 105.429 89.3544 105.429 89.2674C105.386 89.3109 105.364 89.3326 105.342 89.3544C105.321 89.3762 105.299 89.3979 105.277 89.3979C105.277 89.3979 105.255 89.3979 105.234 89.3979L105.146 89.3762C105.103 89.3762 105.081 89.3544 105.081 89.3544C105.081 89.3544 105.059 89.3544 105.059 89.3326C105.059 89.3109 105.081 89.2674 105.103 89.2021C105.146 89.1368 105.168 89.0715 105.19 89.0715C105.212 89.0497 105.234 89.0497 105.255 89.0062C105.277 88.9845 105.299 88.9845 105.342 88.9627L105.386 88.9409V88.9192V88.8974C105.386 88.8757 105.386 88.8539 105.408 88.8321C105.408 88.8104 105.429 88.7668 105.451 88.7233L105.516 89.2021C105.538 89.2891 105.538 89.3326 105.56 89.3544C105.582 89.3762 105.582 89.3762 105.603 89.3762H105.712V89.5938ZM105.538 88.4839L105.451 88.6363L105.342 88.571L105.277 88.7016L105.125 88.6145L105.212 88.4839L105.321 88.5492L105.386 88.4404L105.538 88.4839ZM105.408 89.1368L105.386 89.0497C105.364 89.0497 105.364 89.0715 105.342 89.0715C105.321 89.0933 105.299 89.0933 105.277 89.115C105.255 89.115 105.255 89.1368 105.255 89.1368C105.255 89.1585 105.234 89.1585 105.234 89.1585C105.234 89.1585 105.234 89.1803 105.255 89.1803C105.277 89.1803 105.299 89.1803 105.299 89.1803C105.321 89.1803 105.321 89.1803 105.342 89.1803C105.386 89.1803 105.386 89.1585 105.408 89.1368Z" fill="black"/>
<path id="Vector_21" d="M106.148 89.5936H105.669V89.376H106.082C106.082 89.3325 106.061 89.3107 106.061 89.289C106.061 89.2672 106.039 89.2454 105.995 89.2237L106.061 89.0278C106.104 89.0714 106.126 89.1149 106.148 89.1584C106.169 89.2019 106.169 89.289 106.169 89.376V89.5936H106.148ZM106.148 89.7242L106.061 89.8765L105.952 89.8112L105.886 89.9418L105.734 89.8548L105.821 89.7024L105.93 89.7677L105.995 89.6372L106.148 89.7242Z" fill="black"/>
<path id="Vector_22" d="M106.692 89.5936H106.343C106.3 89.5936 106.278 89.5936 106.256 89.5718C106.235 89.5501 106.213 89.5283 106.213 89.4848C106.213 89.463 106.213 89.4413 106.213 89.4195C106.213 89.3978 106.213 89.376 106.213 89.3325H106.235C106.235 89.3542 106.256 89.3542 106.256 89.376C106.256 89.3978 106.278 89.3978 106.3 89.3978H106.561C106.539 89.3107 106.517 89.2672 106.496 89.2237C106.474 89.1801 106.43 89.1584 106.387 89.1149L106.452 88.8755C106.517 88.919 106.561 88.9843 106.604 89.0713C106.626 89.1366 106.648 89.2454 106.648 89.3542V89.5936H106.692Z" fill="black"/>
<path id="Vector_23" d="M107.41 89.5283C107.41 89.6153 107.366 89.7024 107.301 89.7894C107.236 89.8765 107.149 89.92 107.083 89.92C107.04 89.92 106.996 89.8982 106.953 89.8765C106.909 89.8547 106.822 89.7894 106.713 89.7241L106.757 89.6806C106.822 89.7241 106.866 89.7459 106.887 89.7459C106.909 89.7459 106.953 89.7676 106.996 89.7676C107.04 89.7676 107.105 89.7459 107.149 89.7241C107.214 89.6806 107.257 89.6371 107.323 89.5718C107.301 89.5718 107.279 89.5718 107.257 89.5718C107.214 89.5718 107.17 89.55 107.127 89.5283C107.083 89.5065 107.083 89.4412 107.083 89.3977C107.083 89.3107 107.105 89.2454 107.127 89.1801C107.17 89.0931 107.214 89.0713 107.257 89.0713C107.301 89.0713 107.344 89.093 107.366 89.1583C107.388 89.2236 107.41 89.2889 107.41 89.3542V89.5283ZM107.323 89.3759C107.301 89.2889 107.279 89.2454 107.236 89.2454C107.214 89.2454 107.214 89.2454 107.192 89.2671C107.192 89.2889 107.17 89.2889 107.17 89.3107C107.17 89.3324 107.17 89.3542 107.192 89.3542C107.214 89.3759 107.236 89.3759 107.279 89.3759H107.323Z" fill="black"/>
<path id="Vector_24" d="M107.997 89.5936H107.888C107.845 89.5936 107.801 89.5936 107.78 89.5719C107.758 89.5501 107.714 89.5283 107.714 89.4848C107.671 89.5283 107.627 89.5501 107.584 89.5719C107.54 89.5936 107.519 89.5936 107.475 89.5936H107.388V89.376H107.475C107.519 89.376 107.54 89.376 107.562 89.376C107.584 89.376 107.606 89.3543 107.627 89.3543C107.606 89.3325 107.606 89.3107 107.584 89.289C107.562 89.2672 107.562 89.2672 107.54 89.2672H107.519C107.519 89.2672 107.519 89.289 107.497 89.289H107.453C107.453 89.2019 107.475 89.1366 107.497 89.0931C107.519 89.0496 107.584 89.0278 107.649 89.0278C107.714 89.0278 107.78 89.0496 107.823 89.0714C107.867 89.0931 107.888 89.1366 107.888 89.1802C107.888 89.2019 107.888 89.2237 107.867 89.2454C107.867 89.2672 107.845 89.3107 107.801 89.3543L107.823 89.376C107.823 89.376 107.845 89.376 107.867 89.376H107.975V89.5936H107.997Z" fill="black"/>
<path id="Vector_25" d="M108.955 89.594C108.889 89.594 108.846 89.594 108.802 89.5722C108.759 89.5722 108.715 89.5505 108.694 89.5287C108.672 89.5505 108.628 89.5722 108.607 89.5722C108.585 89.5722 108.541 89.5722 108.498 89.5722H108.367C108.324 89.5722 108.302 89.5722 108.28 89.5505C108.258 89.5287 108.237 89.5069 108.215 89.4634C108.193 89.5069 108.15 89.5287 108.128 89.5505C108.106 89.5722 108.062 89.5722 108.019 89.5722H107.91V89.3546H108.019C108.062 89.3546 108.128 89.3329 108.15 89.3111C108.193 89.2676 108.215 89.2023 108.215 89.137H108.258C108.258 89.1588 108.258 89.1805 108.258 89.2023C108.258 89.224 108.258 89.2458 108.258 89.2676C108.258 89.2893 108.258 89.3111 108.28 89.3328C108.302 89.3546 108.324 89.3546 108.345 89.3546H108.432C108.498 89.3546 108.541 89.3546 108.563 89.3328C108.607 89.3111 108.607 89.2676 108.607 89.224C108.607 89.2023 108.607 89.2023 108.628 89.1805L108.65 89.1588L108.672 89.137C108.672 89.137 108.672 89.1588 108.672 89.1805C108.672 89.2023 108.672 89.2023 108.672 89.224C108.672 89.2458 108.672 89.2893 108.65 89.3328C108.672 89.3328 108.694 89.3546 108.715 89.3546C108.737 89.3546 108.759 89.3764 108.781 89.3764C108.781 89.3546 108.781 89.3329 108.759 89.3111C108.737 89.2893 108.737 89.2676 108.737 89.2458C108.737 89.224 108.737 89.224 108.737 89.224C108.737 89.224 108.737 89.224 108.759 89.2023L108.824 89.1152C108.846 89.1588 108.846 89.1805 108.846 89.2023C108.846 89.224 108.846 89.2676 108.846 89.3111V89.594H108.955Z" fill="black"/>
<path id="Vector_26" d="M109.346 89.5938H108.911V89.3762H109.238L109.151 88.8539L109.107 88.8104C109.107 88.7886 109.107 88.7451 109.129 88.7233C109.151 88.6798 109.151 88.6363 109.194 88.5928L109.238 88.6145V88.6363C109.238 88.6581 109.259 88.6798 109.281 88.6798C109.303 88.7016 109.325 88.7016 109.368 88.7233C109.368 88.7669 109.346 88.7886 109.346 88.8104C109.346 88.8321 109.325 88.8757 109.325 88.8974H109.303L109.39 89.3762V89.5938H109.346Z" fill="black"/>
<path id="Vector_27" d="M109.629 89.3546C109.629 89.3981 109.629 89.4416 109.608 89.4851C109.608 89.5287 109.586 89.5722 109.542 89.6375L109.499 89.6157C109.52 89.5504 109.52 89.4851 109.52 89.4634C109.52 89.4416 109.52 89.3763 109.52 89.3328C109.52 89.2675 109.499 89.2022 109.499 89.1587C109.499 89.0934 109.477 89.0281 109.455 88.9411C109.455 88.9193 109.455 88.8976 109.455 88.8758C109.455 88.8541 109.455 88.8323 109.477 88.7888C109.499 88.7452 109.52 88.7017 109.542 88.6582L109.586 88.9411C109.608 89.0499 109.608 89.1369 109.629 89.224C109.629 89.2458 109.629 89.311 109.629 89.3546Z" fill="black"/>
</g>
<g id="Group_8">
<path id="Vector_28" d="M14.3801 8.85937L16.2951 7.00966C16.491 6.81381 16.6215 6.705 16.6651 6.705C16.7086 6.74852 16.7303 6.77028 16.7303 6.83557L16.7086 6.96614L16.6651 7.59721C16.6651 8.61999 16.9044 9.33812 17.4049 9.7951C18.1231 10.4697 19.3199 10.7961 20.9738 10.7961H28.0245C28.0027 9.46868 27.698 8.38062 27.067 7.53193C26.697 7.00966 26.5012 6.705 26.5012 6.63972C26.5012 6.55267 26.5447 6.48739 26.6317 6.4221L28.3073 5.00762L28.5032 4.89881C28.5467 4.89881 28.5685 4.92057 28.6338 4.94234C28.6773 4.98586 28.8296 5.18171 29.0472 5.59517C29.3519 6.16097 29.613 6.79205 29.8524 7.51017C30.0918 8.22829 30.2659 9.20755 30.3529 10.4697V11.1225C30.3529 11.5142 30.3094 12.2106 30.2006 13.1899H20.8432C18.9718 13.1899 17.5138 12.8417 16.4692 12.1453C15.4247 11.4272 14.7283 10.3609 14.3801 8.85937ZM21.9313 3.31024L20.9303 4.2895C20.8432 4.37654 20.7344 4.42006 20.6256 4.42006C20.5168 4.42006 20.408 4.37654 20.321 4.2895L19.3417 3.31024C19.2547 3.22319 19.2111 3.13615 19.2111 3.00558C19.2111 2.89677 19.2547 2.78797 19.3417 2.67916L20.321 1.6999C20.408 1.61286 20.5168 1.56934 20.6474 1.56934C20.7344 1.56934 20.8432 1.61286 20.952 1.6999L21.9313 2.67916C22.0183 2.76621 22.0619 2.87501 22.0619 3.00558C22.0619 3.11439 22.0183 3.22319 21.9313 3.31024ZM24.8038 3.31024L23.8245 4.2895C23.7375 4.37654 23.6287 4.42006 23.5199 4.42006C23.4111 4.42006 23.3023 4.37654 23.1934 4.2895L22.2142 3.31024C22.1271 3.22319 22.0836 3.13615 22.0836 3.00558C22.0836 2.89677 22.1271 2.78797 22.2142 2.67916L23.1934 1.6999C23.3023 1.61286 23.4111 1.56934 23.5199 1.56934C23.6287 1.56934 23.7375 1.61286 23.8245 1.6999L24.8038 2.67916C24.8473 2.72268 24.8691 2.76621 24.9126 2.83149C24.9561 2.89678 24.9561 2.96206 24.9561 3.00558C24.9561 3.11439 24.9126 3.22319 24.8038 3.31024Z" fill="#1F62EA"/>
<path id="Vector_29" d="M35.5321 10.796V13.168H33.813C33.5301 13.168 33.2907 13.0809 33.0948 12.8851C32.899 12.6892 32.7902 12.4498 32.7684 12.1452L32.0503 2.7443C32.0503 2.57021 32.0938 2.43964 32.1591 2.30907C32.2244 2.17851 32.3114 2.11322 32.442 2.0697L34.1394 1.54743L34.3352 1.50391C34.5093 1.50391 34.5964 1.61271 34.5964 1.80856L34.7487 9.57735C34.7705 10.0126 34.7922 10.3172 34.814 10.5348C34.8575 10.7307 35.0098 10.8395 35.2927 10.8395H35.5321V10.796Z" fill="#1F62EA"/>
<path id="Vector_30" d="M35.358 13.168V10.796H45.6946C45.477 10.5784 45.0853 10.0996 44.4978 9.38151L43.4968 8.11935C42.7134 7.22714 41.9735 6.79191 41.2118 6.79191C40.646 6.79191 40.0149 7.03129 39.3403 7.5318L38.6222 6.61782C39.2315 6.09555 39.8844 5.66033 40.6025 5.35567C41.3206 5.05101 41.9517 4.89868 42.5175 4.89868C43.1921 4.89868 43.8449 5.13805 44.4542 5.63856C45.0853 6.13907 45.8687 7.07481 46.8045 8.46753C47.392 9.29446 47.9143 9.90378 48.3931 10.2737C48.8718 10.6437 49.3288 10.8178 49.7858 10.8178V12.8416C49.7858 12.9504 49.7422 13.0156 49.6334 13.0809C49.5246 13.1462 49.3941 13.1897 49.22 13.1897H35.358V13.168Z" fill="#1F62EA"/>
<path id="Vector_31" d="M59.3171 10.7961H59.513V13.168H59.2301C59.1213 14.4737 58.6861 15.54 57.9679 16.3669C57.2498 17.1939 56.2488 17.7814 54.9649 18.0861L53.1805 16.4322C53.1152 16.3887 53.0716 16.3234 53.0499 16.2581C53.0499 16.1929 53.1152 16.1493 53.2457 16.1276L53.4198 16.1058C54.4209 15.9752 55.226 15.6271 55.8789 15.1048C56.5099 14.5608 56.8581 13.9297 56.9234 13.168H53.8115C53.5069 13.168 53.1805 13.0592 52.8323 12.8634C52.4841 12.6675 52.1794 12.2976 51.9618 11.7536C51.7442 11.2095 51.6136 10.5784 51.6136 9.83856C51.6136 8.88106 51.766 8.01061 52.0924 7.22721C52.3971 6.46556 52.8323 5.87801 53.3763 5.46454C53.9421 5.05108 54.5732 4.85522 55.3131 4.85522C57.8809 4.85522 59.2083 6.8355 59.3171 10.7961ZM55.5524 10.7961H56.9234C56.8581 8.55464 56.3576 7.42306 55.4219 7.42306C55.0302 7.42306 54.7037 7.64067 54.4208 8.05414C54.1379 8.4676 54.0074 8.98987 54.0074 9.55566C54.0074 10.0344 54.1162 10.3608 54.3338 10.5349C54.5297 10.709 54.9431 10.7961 55.5524 10.7961Z" fill="#1F62EA"/>
<path id="Vector_32" d="M64.6052 13.168H59.339V10.796H62.4291L61.8198 2.98371C61.8198 2.592 61.9721 2.33087 62.255 2.2003L64.0829 1.48218H64.1265C64.2353 1.48218 64.3006 1.54746 64.3006 1.67803L64.6052 13.168Z" fill="#1F62EA"/>
<path id="Vector_33" d="M69.7409 18.0861L67.9565 16.4322L67.8259 16.2581C67.8259 16.2364 67.8259 16.2146 67.8477 16.1929C67.8477 16.1711 67.9782 16.1493 68.1958 16.1058C69.1969 15.9752 70.002 15.6271 70.6549 15.1048C71.3077 14.5608 71.6559 13.9297 71.7212 13.168H68.5875C68.2829 13.168 67.9565 13.0592 67.6083 12.8634C67.2601 12.6675 66.9554 12.2976 66.7378 11.7536C66.5202 11.2095 66.3896 10.5784 66.3896 9.83856C66.3896 9.29453 66.4549 8.72873 66.5637 8.16294C66.6726 7.59715 66.8902 7.05312 67.1731 6.57437C67.456 6.09562 67.8477 5.68215 68.3264 5.35573C68.8052 5.02932 69.3927 4.85522 70.0673 4.85522C71.5906 4.85522 72.7222 5.57335 73.4186 7.03135C73.6797 7.57539 73.8973 8.22822 74.0496 9.01163C74.202 9.77328 74.2672 10.4914 74.2672 11.166C74.2672 13.0592 73.8538 14.626 73.0486 15.8664C72.2652 17.0633 71.1554 17.8032 69.7409 18.0861ZM70.3067 10.7961H71.8517C71.8082 9.70799 71.6559 8.8593 71.373 8.29351C71.0901 7.72772 70.6984 7.42306 70.1761 7.42306C69.7844 7.42306 69.458 7.64067 69.1751 8.05414C68.8922 8.4676 68.7616 8.98987 68.7616 9.55566C68.7616 10.0344 68.8704 10.3608 69.0881 10.5349C69.3057 10.709 69.7191 10.7961 70.3067 10.7961Z" fill="#1F62EA"/>
<path id="Vector_34" d="M93.4824 10.7962V12.82C93.4824 12.9288 93.4389 12.9941 93.3301 13.0593C93.2213 13.1246 93.0907 13.1682 92.9166 13.1682H88.1291C86.6058 13.1682 85.5395 13.364 84.9085 13.7775C84.2774 14.1909 83.951 14.8873 83.951 15.8883C83.951 16.4759 84.1468 17.0199 84.5168 17.5639C84.8867 18.0862 85.3654 18.4997 85.953 18.7608C86.2359 18.8696 86.5841 18.9784 86.9975 19.0655C87.411 19.1525 88.1074 19.2178 89.0866 19.2831C89.326 19.2831 89.4348 19.3266 89.4348 19.4354C89.4348 19.5224 89.3913 19.6095 89.2825 19.7183L87.3892 21.6115C85.496 21.3722 84.0162 20.7193 82.9064 19.6748C81.8184 18.6302 81.2526 17.3246 81.2526 15.7577C81.2526 15.0614 81.4049 14.3868 81.6878 13.7775C81.9924 13.1464 82.4059 12.6241 82.9282 12.1671C83.4504 11.7319 84.1033 11.3837 84.9085 11.1226C85.7136 10.8615 86.4317 10.7526 87.0846 10.7962H87.1934L89.2825 10.8179C89.0431 10.5786 88.6514 10.0998 88.0856 9.40345L87.0846 8.14129C86.3012 7.24908 85.5613 6.81385 84.7997 6.81385C84.2339 6.81385 83.6245 7.07499 82.9282 7.59726L82.2101 6.68329C83.581 5.50818 84.9085 4.94238 86.1271 4.94238C86.7799 4.94238 87.4328 5.20352 88.0638 5.72579C88.6949 6.24806 89.4348 7.11851 90.2835 8.35891C90.8928 9.25112 91.4368 9.90396 91.9373 10.2957C92.5249 10.6221 93.0036 10.8179 93.4824 10.7962ZM88.5208 14.8002L89.5001 15.7795C89.6089 15.8883 89.6524 15.9754 89.6524 16.0842C89.6524 16.193 89.6089 16.3018 89.5001 16.4106L88.5208 17.3898C88.412 17.4769 88.3032 17.5204 88.2162 17.5204C88.1074 17.5204 87.9986 17.4769 87.8898 17.3898L86.9105 16.4106C86.8235 16.3235 86.7799 16.2365 86.7799 16.1059C86.7799 15.9971 86.8235 15.8883 86.9105 15.7795L87.8898 14.8002C87.9768 14.7132 88.0856 14.6697 88.2162 14.6697C88.325 14.6914 88.4338 14.735 88.5208 14.8002Z" fill="#1F62EA"/>
<path id="Vector_35" d="M97.2906 12.3846L96.0937 13.7338L95.8326 14.0167L95.7238 13.6032L94.8751 2.91842V2.78786C94.8751 2.67905 94.9186 2.54848 94.9839 2.43967C95.0492 2.33087 95.158 2.24382 95.2451 2.22206L97.1601 1.50394L97.2253 1.48218C97.3341 1.48218 97.3777 1.5257 97.3777 1.63451L97.3994 11.9929C97.4429 12.1234 97.3994 12.254 97.2906 12.3846Z" fill="#1F62EA"/>
<path id="Vector_36" d="M103.58 10.8179H104.798V13.1681H104.776L104.515 13.1898C104.124 13.1898 103.863 13.0593 103.71 12.7764C103.645 14.2561 103.231 15.453 102.448 16.367C101.665 17.281 100.62 17.825 99.2709 18.0208L97.617 16.4758L97.4865 16.2799C97.4865 16.2582 97.4864 16.2364 97.5082 16.2364C97.5082 16.2147 97.6388 16.1929 97.8999 16.1711C99.3579 15.9753 100.359 15.4312 100.903 14.5173C101.229 13.908 101.403 13.1898 101.403 12.3411C101.403 10.8179 101.034 9.44689 100.315 8.2065C100.207 8.03241 100.163 7.88008 100.163 7.79304C100.163 7.66247 100.185 7.57542 100.228 7.57542L101.969 6.00861L102.1 5.96509C102.143 5.96509 102.209 6.03037 102.274 6.13918C102.339 6.24799 102.492 6.66145 102.731 7.33605C103.166 8.44588 103.449 9.64275 103.58 10.8179Z" fill="#1F62EA"/>
<path id="Vector_37" d="M120.423 13.1681H104.602V10.7961H117.594C117.572 10.078 117.463 9.49042 117.246 9.03343C117.028 8.57645 116.767 8.27179 116.441 8.11946C116.114 7.96713 115.788 7.88008 115.461 7.88008H107.801C107.823 6.63969 107.888 5.72572 108.019 5.13816C108.15 4.57237 108.411 4.09362 108.824 3.72368C109.238 3.35374 109.803 3.00556 110.565 2.67914C111.327 2.35272 113.024 1.76516 115.679 0.938232L115.07 2.57033C114.961 2.83146 114.83 3.00556 114.656 3.07084L110.87 4.37652C110.543 4.50709 110.26 4.65941 110.064 4.78998C109.869 4.94231 109.738 5.24697 109.695 5.70396H115.94C117.616 5.70396 118.769 6.24799 119.422 7.35781C120.096 8.44588 120.423 10.3826 120.423 13.1681Z" fill="#1F62EA"/>
</g>
</g>
<defs>
<clipPath id="clip0_49_1000">
<rect width="135.79" height="101.19" fill="white" transform="translate(0.104736 0.807617)"/>
</clipPath>
</defs>
</svg>
