<svg version="1.2" xmlns="http://www.w3.org/2000/svg" viewBox="0 0 728 159" width="728" height="159">
	<title>لوحات سعودية-01-svg</title>
	<style>
		.s0 { fill: #0079c1 } 
		.s1 { fill: #000000 } 
		.s2 { fill: none;stroke: #000000;stroke-miterlimit:10;stroke-width: 6 } 
		.s3 { fill: none;stroke: #000000;stroke-miterlimit:10;stroke-width: 4 } 
		.s4 { fill: #808080 } 
	</style>
	<g>
		<path class="s0" d="m326.1 2h114.1v150.8h-114.1z"/>
		<g>
			<path class="s1" d="m380 28.1c-0.3 0.7-0.6 1.5-0.9 2.2-0.3 0.6-0.4 1.4-1.2 1.8-1.3-2.1-1.3-2.1-1.3-7.1-1.8 1.4-3.3 3-4.8 5.1-0.5-3.7 0.9-6.2 3.4-8.5-2-0.4-3.3 1.1-4.8 0.7 1.1-3.1 4.1-4 6.9-5.3-1.4-0.8-2.5-0.2-3.6-0.7 0.5-1.1 1.7-1.8 2.4-1.8 2.4 0.3 4.7-0.9 7.1 0.1 0.4 0.1 0.9 0.1 1.3 0 2.2-0.8 3.9 0 5.6 1.8-1.2 0.1-2.3 0.2-4 0.3 2.9 1.9 6.3 2.2 7 5.8-1.4-0.3-2.8-0.7-4.3-1 1.9 2.5 3.5 5 3 8.3-1.9-1.3-2.9-3.3-4.8-4.9-0.2 2.5 0.7 5.2-1.5 7.1-1.1-1.2-1.2-2.8-2.4-3.9q0 1.8 0 3.6 0 6.5 0 12.9c0 0.9 0 2-1.1 2.1-1.3 0.1-1.3-1.1-1.3-2.1q0-8.2 0-16.5c-0.3 0-0.5 0-0.7 0z"/>
			<path class="s1" d="m375.6 49.6c1.7 0.4 3 0.1 4-1.4 0.5-0.7 0.6-1.1-0.1-1.8-3.6-3.3-7.4-6.3-12.4-7.2-0.9-0.2-1.7-0.3-3-0.4 1.5-0.8 2.7-0.8 4-0.7 4.9 0.5 8.7 2.9 11.9 6.3 1.3 1.4 2.1 1.3 3.3-0.1 2.8-3 6.1-5.3 10.4-6 1.7-0.3 3.4-0.5 5.4 0.4-1.7 0.4-3.2 0.6-4.6 1-4.3 1.2-7.6 3.9-10.7 6.8-0.4 0.4-0.8 0.8-0.3 1.3 0.8 0.7 0.9 2.3 2.5 2 0.6-0.1 1.1-0.3 1.8 0-0.5 0.7-1.9 1.1-0.5 2.2 1.2 1 2.3 1.9 4 1 0.4-0.2 0.8-1.2 1.4-0.5 0.5 0.6 0.1 1.4-0.3 1.9-1 1.2-2.3 1.1-3.5 0.7-0.8-0.3-1.5-0.8-2.1-1.4-0.7-0.6-1.2-1.3-2.3-0.5-0.4 0.3-0.9 0.1-1.1-0.4-0.2-0.5 0.2-0.5 0.5-0.6 0.8-0.2 0.6-0.7 0.2-1.1-0.2-0.3-0.4-0.5-0.7-0.7-0.6-0.6-1.1-1.9-2.1-1.4-1 0.5-1.6 1.6-2.4 2.5-0.2 0.3-0.1 0.6 0.3 0.8 0.3 0.2 1.1 0.1 0.6 0.8-0.2 0.4-0.9 0.6-1.2 0.3-1-0.9-1.4 0-2.1 0.5-1.1 0.8-2.3 1.6-3.8 1.6-1.1 0-1.6-0.6-2.1-1.4-0.2-0.5-0.4-1 0-1.5 0.5-0.5 0.8 0.2 1.1 0.4 1.5 0.9 3.8 0.2 4.7-1.4 0.9-1.2-0.8-1-0.8-2z"/>
		</g>
		<g>
			<path fill-rule="evenodd" class="s2" d="m24.7 156.1h679.1c11.9 0 21.6-9.7 21.6-21.6v-110.9c0-11.9-9.7-21.6-21.6-21.6h-679.1c-11.9 0-21.6 9.7-21.6 21.6v110.9c0 11.9 9.7 21.6 21.6 21.6z"/>
		</g>
		<path class="s3" d="m441.4 2v154.1"/>
		<path class="s3" d="m725.4 79h-285.3"/>
		<path class="s3" d="m326.1 79h-323"/>
		<path class="s3" d="m326.1 2v154.1"/>
		<g>
			<path class="s1" d="m354.6 100.8v-20.2h4.1v9l8.2-9h5.5l-7.6 7.9 8 12.3h-5.3l-5.5-9.5-3.3 3.4v6.1z"/>
		</g>
		<g>
			<path class="s1" d="m375.6 94.1l3.8-0.4c0.2 1.3 0.7 2.2 1.4 2.8 0.7 0.6 1.7 0.9 2.9 0.9 1.3 0 2.2-0.3 2.9-0.8 0.6-0.5 1-1.2 1-1.9 0-0.5-0.1-0.9-0.4-1.2-0.3-0.3-0.7-0.6-1.4-0.8-0.5-0.2-1.5-0.4-3.2-0.9-2.1-0.5-3.6-1.2-4.4-1.9q-1.8-1.6-1.8-3.9c0-1 0.3-1.9 0.8-2.8 0.6-0.9 1.4-1.5 2.4-2 1.1-0.5 2.3-0.7 3.8-0.7 2.4 0 4.3 0.5 5.5 1.6 1.2 1.1 1.9 2.5 1.9 4.3l-3.9 0.2c-0.2-1-0.5-1.7-1.1-2.2-0.6-0.4-1.4-0.7-2.5-0.7-1.1 0-2 0.2-2.7 0.7q-0.6 0.5-0.6 1.2 0 0.8 0.6 1.2c0.5 0.4 1.7 0.9 3.6 1.3 1.9 0.5 3.3 0.9 4.3 1.4 0.9 0.5 1.6 1.1 2.2 2 0.5 0.8 0.8 1.9 0.8 3.1 0 1.1-0.3 2.2-0.9 3.1-0.6 1-1.5 1.7-2.6 2.2-1.1 0.5-2.5 0.7-4.2 0.7-2.5 0-4.4-0.6-5.7-1.7-1.4-1-2.2-2.6-2.5-4.8z"/>
		</g>
		<g>
			<path fill-rule="evenodd" class="s1" d="m414.7 100.8h-4.4l-1.8-4.6h-8.1l-1.7 4.6h-4.3l7.9-20.2h4.3zm-7.5-8l-2.8-7.5-2.7 7.5z"/>
		</g>
		<g>
			<path fill-rule="evenodd" class="s1" d="m369.3 69h-0.8c-0.1 0-0.3 0-0.4-0.1-0.2-0.1-0.4-0.3-0.6-0.7-0.2-0.4-0.4-1-0.4-1.8-0.3 0.3-0.5 0.6-0.7 0.7q-0.3 0.3-0.6 0.3-0.2 0-0.3 0l-0.7-0.1c-0.3-0.1-0.5-0.1-0.6-0.1-0.1 0-0.1-0.1-0.1-0.2 0-0.1 0.1-0.5 0.4-1 0.3-0.6 0.5-1 0.6-1.1 0.1-0.1 0.3-0.3 0.5-0.4 0.2-0.1 0.4-0.2 0.7-0.4l0.3-0.2c0-0.1 0-0.1 0-0.2 0-0.1 0-0.1 0-0.2 0-0.2 0-0.4 0.1-0.6 0.1-0.2 0.2-0.5 0.4-0.9l0.6 3.8c0.1 0.6 0.2 1 0.4 1.2 0.1 0.1 0.2 0.2 0.4 0.2h0.8zm-1.4-8.6l-0.7 1.1-0.9-0.5-0.5 1-1.1-0.6 0.6-1.1 0.9 0.5 0.5-0.9zm-1 5.2l-0.1-0.7c-0.1 0.1-0.2 0.1-0.3 0.1-0.2 0.1-0.4 0.2-0.5 0.3-0.1 0.1-0.2 0.2-0.2 0.2-0.1 0.1-0.1 0.2-0.1 0.2 0 0.1 0.1 0.1 0.2 0.1 0.1 0 0.3 0.1 0.4 0.1 0.1 0 0.2 0 0.3-0.1 0 0 0.1-0.1 0.3-0.2z"/>
			<path class="s1" d="m372.7 69h-3.8v-1.7h3.2c0-0.3-0.1-0.5-0.2-0.7-0.1-0.1-0.2-0.3-0.4-0.6l0.5-1.5c0.3 0.3 0.5 0.7 0.6 1.1 0.1 0.4 0.2 0.9 0.2 1.7v1.7zm-0.1 1.1l-0.6 1.2-0.9-0.5-0.5 1-1.1-0.6 0.7-1.3 0.9 0.5 0.5-1z"/>
			<path class="s1" d="m377 69h-2.8c-0.3 0-0.5-0.1-0.6-0.2-0.2-0.1-0.3-0.4-0.3-0.7q0-0.3 0-0.6c0-0.2 0-0.4 0.1-0.6h0.2c0 0.1 0.1 0.2 0.2 0.3 0.1 0.1 0.2 0.1 0.4 0.1h2.1c-0.1-0.6-0.3-1.1-0.5-1.4-0.2-0.3-0.5-0.6-0.8-0.8l0.4-1.9c0.5 0.4 0.9 0.9 1.1 1.5 0.2 0.6 0.3 1.3 0.3 2.3v2z"/>
			<path fill-rule="evenodd" class="s1" d="m382.7 68.6q0 1-0.9 2.1c-0.6 0.7-1.2 1-1.8 1-0.3 0-0.7-0.1-1.1-0.3-0.4-0.2-1-0.6-1.9-1.3l0.3-0.4c0.4 0.3 0.8 0.5 1.1 0.6 0.2 0.1 0.5 0.1 0.8 0.1q0.6 0 1.2-0.3c0.5-0.3 0.9-0.7 1.4-1.3-0.2 0-0.3 0-0.4 0-0.4 0-0.7-0.1-1-0.4-0.2-0.3-0.4-0.6-0.4-1.1 0-0.6 0.1-1.2 0.4-1.8 0.3-0.6 0.7-0.9 1-0.9 0.3 0 0.6 0.2 0.8 0.7 0.2 0.4 0.3 1 0.3 1.6v1.7zm-0.8-1.2c-0.1-0.7-0.3-1-0.7-1-0.1 0-0.2 0.1-0.3 0.2-0.1 0.1-0.1 0.2-0.1 0.3 0 0.1 0.1 0.3 0.2 0.4 0.2 0.1 0.4 0.1 0.6 0.1z"/>
			<path class="s1" d="m387.2 69h-0.9c-0.3 0-0.6-0.1-0.9-0.2q-0.3-0.2-0.6-0.6c-0.3 0.3-0.6 0.6-1 0.7-0.3 0.1-0.6 0.1-0.9 0.1h-0.6v-1.7h0.6c0.3 0 0.6 0 0.7-0.1 0.1-0.1 0.3-0.1 0.6-0.2-0.1-0.2-0.2-0.4-0.3-0.5-0.1-0.1-0.2-0.2-0.3-0.2h-0.1c0 0-0.1 0.1-0.1 0.2h-0.3c0-0.7 0.1-1.3 0.4-1.6 0.3-0.3 0.7-0.5 1.2-0.5 0.6 0 1 0.1 1.3 0.3 0.3 0.2 0.5 0.5 0.5 0.9 0 0.2 0 0.4-0.1 0.6-0.1 0.2-0.2 0.4-0.5 0.8 0.1 0.1 0.1 0.1 0.2 0.2 0.1 0 0.2 0.1 0.3 0.1h0.9v1.7z"/>
			<path class="s1" d="m394.8 69c-0.5 0-0.8 0-1.1-0.1q-0.5-0.2-0.9-0.3-0.3 0.3-0.6 0.3c-0.2 0.1-0.5 0.1-0.8 0.1h-1c-0.3 0-0.5-0.1-0.6-0.2-0.2-0.1-0.3-0.4-0.4-0.7-0.2 0.3-0.5 0.6-0.8 0.7-0.2 0.1-0.5 0.2-0.9 0.2h-0.9v-1.7h0.9c0.4 0 0.8-0.1 1.1-0.4 0.4-0.3 0.6-0.8 0.6-1.4l0.4 0.1c0 0.1 0 0.3 0 0.4 0 0.1 0 0.4 0 0.6 0 0.2 0.1 0.4 0.2 0.5 0.1 0.1 0.3 0.2 0.5 0.2h0.8c0.5 0 0.9-0.1 1.1-0.2 0.3-0.2 0.4-0.5 0.4-0.9 0-0.1 0-0.2 0.1-0.3 0 0 0.1-0.1 0.2-0.2l0.2-0.2q0 0.2 0 0.3 0 0.2 0 0.3c0 0.2 0 0.5-0.1 0.9 0.2 0.1 0.3 0.1 0.5 0.2 0.2 0.1 0.4 0.1 0.6 0.1 0-0.1-0.1-0.3-0.2-0.5-0.1-0.2-0.2-0.4-0.2-0.4 0-0.1 0-0.2 0-0.2 0 0 0.1-0.1 0.1-0.2l0.5-0.7c0.1 0.3 0.2 0.5 0.2 0.7 0 0.2 0.1 0.5 0.1 0.8z"/>
			<path class="s1" d="m397.8 69h-3.4v-1.7h2.6l-0.7-4.2-0.4-0.3c0-0.2 0-0.5 0.1-0.7 0.1-0.3 0.3-0.7 0.5-1.1l0.3 0.1c0 0 0 0.1 0 0.2 0 0.1 0.1 0.3 0.3 0.4 0.2 0.1 0.4 0.2 0.7 0.4 0 0.3-0.1 0.5-0.2 0.8-0.1 0.2-0.2 0.5-0.2 0.7l-0.2-0.1 0.7 3.8v1.7z"/>
			<path class="s1" d="m400.1 67.2c0 0.4 0 0.7-0.1 1-0.1 0.3-0.3 0.7-0.5 1.2l-0.4-0.1c0.1-0.5 0.1-0.9 0.1-1.3 0-0.2 0-0.6-0.1-1.1 0-0.5-0.1-1-0.2-1.4-0.1-0.5-0.2-1-0.3-1.7-0.1-0.2-0.1-0.4-0.1-0.5 0-0.1 0.1-0.3 0.2-0.6 0.1-0.3 0.3-0.7 0.5-1.1l0.4 2.2q0.2 1.2 0.3 2.1c0.1 0.5 0.2 0.9 0.2 1.3z"/>
		</g>
		<path class="s4" d="m345.1 135.3h33.7c1 0 1.8-0.8 1.8-1.8v-11.5c0-1-0.8-1.8-1.8-1.8h-33.7c-1 0-1.8 0.8-1.8 1.8v11.5c0 1 0.8 1.8 1.8 1.8z"/>
		<path class="s1" d="m414.3 119.7h-19.7c0 0-2.3-0.1-1.8 2.1 0.5 2.2 10.9 20.6 10.9 20.6 0 0 1.3 2.1 3.2-2.1 1.9-4.2 9.6-18.6 9.6-18.6 0 0 0.5-2-2.2-2z"/>
	</g>
</svg>