<svg height="512" viewBox="0 0 512 512" width="512" xmlns="http://www.w3.org/2000/svg"><g id="Layer_7" data-name="Layer 7"><path d="m476.644 241.455a47.785 47.785 0 0 0 -16-56 47.867 47.867 0 0 0 -37.269-64.924 47.869 47.869 0 0 0 -72.247-33.621 47.993 47.993 0 0 0 -47.128-39c-.925 0-1.828.087-2.739.139a47.94 47.94 0 0 0 -90.522 0c-.911-.052-1.814-.139-2.739-.139a47.993 47.993 0 0 0 -47.128 39 47.869 47.869 0 0 0 -72.247 33.621 47.867 47.867 0 0 0 -37.269 64.924 47.785 47.785 0 0 0 -16 56 47.973 47.973 0 1 0 73.06 56.623 71.872 71.872 0 0 0 106.4-3.555 95.079 95.079 0 0 0 82.37 0 71.872 71.872 0 0 0 106.4 3.555 47.983 47.983 0 1 0 73.06-56.623z" fill="#2cb062"/><path d="m472 279.906a47.876 47.876 0 0 0 -19.356-38.451 47.785 47.785 0 0 0 -16-56 47.867 47.867 0 0 0 -37.269-64.924 47.911 47.911 0 0 0 -35.575-38.977 48.232 48.232 0 0 0 -12.668 5.356 47.419 47.419 0 0 0 -1.922-6.806 47.77 47.77 0 0 0 -22.078 6.806 47.993 47.993 0 0 0 -47.128-39c-.925 0-1.828.087-2.739.139a48 48 0 0 0 -33.265-30.479 48 48 0 0 0 -33.261 30.475c-.911-.052-1.814-.139-2.739-.139a47.993 47.993 0 0 0 -47.128 39 47.77 47.77 0 0 0 -22.078-6.806 47.419 47.419 0 0 0 -1.922 6.806 48.232 48.232 0 0 0 -12.672-5.352 47.911 47.911 0 0 0 -35.579 38.977 47.867 47.867 0 0 0 -37.269 64.924 47.785 47.785 0 0 0 -16 56 47.91 47.91 0 0 0 16.51 84.845 48.022 48.022 0 0 0 32.554-28.219 72.52 72.52 0 0 0 16.354 12.58 48.011 48.011 0 0 0 7.646-12.58 71.838 71.838 0 0 0 39.516 20.729 71.884 71.884 0 0 0 42.883-24.284 97.187 97.187 0 0 0 17.8 6.359 72.648 72.648 0 0 0 6.2-6.359 96.155 96.155 0 0 0 29.185 8.562 96.155 96.155 0 0 0 29.185-8.565 72.648 72.648 0 0 0 6.2 6.359 97.187 97.187 0 0 0 17.8-6.359 71.884 71.884 0 0 0 42.883 24.284 71.838 71.838 0 0 0 39.516-20.729 48.011 48.011 0 0 0 7.646 12.58 72.52 72.52 0 0 0 16.354-12.58 48.022 48.022 0 0 0 32.554 28.222 47.973 47.973 0 0 0 35.862-46.394z" fill="#4fba6f"/><path d="m325.807 314.977a72.278 72.278 0 0 1 -28.622-20.454 97.752 97.752 0 0 1 -10.659 4.333l-30.526 61.05-30.525-61.05a97.768 97.768 0 0 1 -10.66-4.333 72.281 72.281 0 0 1 -28.622 20.454l19.573 27.4a97.89 97.89 0 0 1 18.234 56.899 97.889 97.889 0 0 1 -19.578 58.733l-28.422 37.897h56l40-16 24 16h40l-28.422-37.9a97.889 97.889 0 0 1 -19.578-58.729 97.89 97.89 0 0 1 18.234-56.9z" fill="#805333"/><path d="m272 399.276a97.9 97.9 0 0 1 18.233-56.9l25.217-32.592a72.5 72.5 0 0 1 -18.265-15.264 97.952 97.952 0 0 1 -10.659 4.333l-30.526 61.053-30.525-61.05a97.968 97.968 0 0 1 -10.66-4.333 72.291 72.291 0 0 1 -28.622 20.454l19.574 27.4a97.891 97.891 0 0 1 -1.345 115.631l-28.422 37.898h40l40-16 6 4 10-4 24 16h24l-28.422-37.9a97.89 97.89 0 0 1 -19.578-58.73z" fill="#915e3c"/><g fill="#2a9b58"><path d="m360 239.906a39.995 39.995 0 0 1 -33.141-17.625 31.987 31.987 0 0 1 -54.859-22.375h16a16 16 0 0 0 32 0 8 8 0 1 1 16 0 24 24 0 0 0 48 0h16a40.047 40.047 0 0 1 -40 40z"/><path d="m184 207.906a40.047 40.047 0 0 1 -40-40h16a24 24 0 0 0 48 0h16a40.047 40.047 0 0 1 -40 40z"/><path d="m96 271.906a32.034 32.034 0 0 1 -32-32h16a16 16 0 0 0 32 0h16a32.034 32.034 0 0 1 -32 32z"/><path d="m328 119.906a32.034 32.034 0 0 1 -32-32h16a16 16 0 0 0 32 0h16a32.034 32.034 0 0 1 -32 32z"/></g></g></svg>