<?xml version="1.0" encoding="iso-8859-1"?>
<!-- Generator: Adobe Illustrator 19.0.0, SVG Export Plug-In . SVG Version: 6.00 Build 0)  -->
<svg version="1.1" id="Capa_1" xmlns="http://www.w3.org/2000/svg" xmlns:xlink="http://www.w3.org/1999/xlink" x="0px" y="0px"
	 viewBox="0 0 512 512" style="enable-background:new 0 0 512 512;" xml:space="preserve">
<path style="fill:#93603E;" d="M255.462,355.581l-26.144,6.361c0,0.722,0,139.576,0,142.454h53.324c0-4.147,0-140.292,0-142.201
	L255.462,355.581z"/>
<path style="fill:#845535;" d="M249.371,357.063l-20.052,4.879c0,0.722,0,139.576,0,142.454h20.052V357.063z"/>
<path style="fill:#2DAD42;" d="M399.478,354.281l-47.622-62.702c-0.189-0.044-96.123-22.431-96.312-22.475
	c-0.308,0.072-96.198,22.448-96.506,22.52l-48.961,64.461c-23.341,30.754-14.211,41.878,15.278,36.497l130.108-30.357
	c147.596,34.437,139.704,32.994,145.922,32.994C425.143,395.218,413.851,373.207,399.478,354.281z"/>
<path style="fill:#E2926F;" d="M305.71,512h-99.459c-4.2,0-7.604-3.405-7.604-7.604c0-4.2,3.405-7.604,7.604-7.604h99.459
	c4.2,0,7.604,3.405,7.604,7.604S309.91,512,305.71,512z"/>
<path style="fill:#2B9337;" d="M130.355,356.084l52.052-69.914c-0.303,0.071-23.066,5.382-23.369,5.453l-48.961,64.461
	c-23.24,30.621-14.222,41.633,14.487,36.633C109.26,387.793,120.637,368.888,130.355,356.084z"/>
<path style="fill:#3BBC56;" d="M377.245,263.308l-0.404,0.306l0.37-0.349c-0.191-0.252-57.517-75.731-57.708-75.983
	c-0.189-0.044-63.686-14.861-63.875-14.905l-64.084,14.953l-58.861,77.502c-19.743,26.01-12.028,35.512,12.984,30.95l109.875-25.637
	c126.642,29.548,118.187,27.88,123.378,27.88C398.94,298.023,389.356,279.254,377.245,263.308z"/>
<g>
	<path style="fill:#2DAD42;" d="M152.963,264.832l59.701-82.43l-21.119,4.928l-58.861,77.502
		c-19.743,26.01-12.028,35.512,12.984,30.95l1.326-0.309C135.458,290.601,145.439,274.743,152.963,264.832z"/>
	<path style="fill:#2DAD42;" d="M353.491,167.779l-44.773-58.952c-0.189-0.044-52.836-12.328-53.025-12.373l-53.18,12.41
		l-45.664,60.12c-15.998,21.079-9.526,28.68,10.538,25.023l88.242-20.59l94.376,22.018
		C370.323,198.373,365.96,184.202,353.491,167.779z"/>
</g>
<path style="fill:#2B9337;" d="M177.128,168.985l48.758-65.574l-23.372,5.454l-45.664,60.12
	c-16.168,21.302-10.021,29.82,14.307,24.144C163.615,188.451,171.737,176.087,177.128,168.985z"/>
<path style="fill:#3BBC56;" d="M335.462,92.737l-0.404,0.307l0.384-0.336l-62.665-82.509C267.663,3.464,262.091,0.033,256.217,0
	c-6.863,0-13.373,4.75-17.393,9.921l-63.656,83.813c-13.022,17.157-7.844,23.542,8.678,20.527l71.848-16.764
	c82.845,19.329,77.301,18.237,80.718,18.237C349.724,115.731,343.548,103.382,335.462,92.737z"/>
<path style="fill:#2DAD42;" d="M195.445,93.733c68.972-90.811,64.889-86.456,70.623-90.281c-9.774-7.017-20.339-2.414-27.245,6.469
	l-63.656,83.813c-6.492,8.553-8.712,14.635-6.597,18.078c3.359,5.468,15.365,2.428,21.186,1.07
	C184.987,108.53,191.525,98.899,195.445,93.733z"/>
<g>
</g>
<g>
</g>
<g>
</g>
<g>
</g>
<g>
</g>
<g>
</g>
<g>
</g>
<g>
</g>
<g>
</g>
<g>
</g>
<g>
</g>
<g>
</g>
<g>
</g>
<g>
</g>
<g>
</g>
</svg>
