<svg id="Layer_1" enable-background="new 0 0 64 64" height="512" viewBox="0 0 64 64" width="512" xmlns="http://www.w3.org/2000/svg"><g><path d="m62.998 49.44s-5.66 1.33-10-.12c-3.99-3.49-6.48-7.3-7.98-10.25 1.65-.14 3.46-.69 4.98-2.07 2.05 1.86 4.64 2.21 6.66 2.11.94 2.2 2.95 6.27 6.34 10.33z" fill="#266643"/><path d="m56.658 39.11c-2.02.1-4.61-.25-6.66-2.11-1.52 1.38-3.33 1.93-4.98 2.07-.62-1.21-1.07-2.28-1.38-3.11 2.42-.58 4.36-1.96 4.36-1.96-1.58-1.35-2.96-2.71-4.14-3.99.82-1.07 1.4-2.22 1.75-3.02 1.33-.03 2.97-.36 4.39-1.5 1.28 1.03 2.75 1.4 4 1.48 1.05 2.78 2.98 7.17 6 11.55 0 0-1.42.5-3.34.59z" fill="#307752"/><g fill="#3e8a64"><path d="m42.998 26.7c5-6.04 7-14.5 7-14.5s2 8.46 7 14.5c0 0-1.31.4-3 .27-1.25-.08-2.72-.45-4-1.48-1.42 1.14-3.06 1.47-4.39 1.5-1.5.05-2.61-.29-2.61-.29z"/><path d="m31.998 3s2 11 10 19c0 0-1.62.54-3.74.49-1.96-.03-4.34-.57-6.26-2.49-1.92 1.92-4.3 2.46-6.26 2.49-2.12.05-3.74-.49-3.74-.49 8-8 10-19 10-19z"/><path d="m13.998 12.2s2 8.46 7 14.5c0 0-1.11.34-2.61.29-1.33-.03-2.97-.36-4.39-1.5-1.28 1.03-2.75 1.4-4 1.48-1.69.13-3-.27-3-.27 5-6.04 7-14.5 7-14.5z"/></g><path d="m7.338 39.11c-1.92-.09-3.34-.59-3.34-.59 3.02-4.38 4.95-8.77 6-11.55 1.25-.08 2.72-.45 4-1.48 1.42 1.14 3.06 1.47 4.39 1.5.35.8.93 1.95 1.75 3.02-1.18 1.28-2.56 2.64-4.14 3.99 0 0 1.94 1.38 4.36 1.96-.31.83-.76 1.9-1.38 3.11-1.65-.14-3.46-.69-4.98-2.07-2.05 1.86-4.64 2.21-6.66 2.11z" fill="#307752"/><path d="m43.858 30.01c1.18 1.28 2.56 2.64 4.14 3.99 0 0-1.94 1.38-4.36 1.96-2.18.53-4.75.41-6.64-1.96 0 0 0 3-5 5-5-2-5-5-5-5-1.89 2.37-4.46 2.49-6.64 1.96-2.42-.58-4.36-1.96-4.36-1.96 1.58-1.35 2.96-2.71 4.14-3.99 3.17-3.45 4.97-6.4 5.6-7.52 1.96-.03 4.34-.57 6.26-2.49 1.92 1.92 4.3 2.46 6.26 2.49.63 1.12 2.43 4.07 5.6 7.52z" fill="#3e8a64"/><path d="m40.783 26.306c-1.31-1.753-2.14-3.13-2.526-3.816-1.96-.03-4.34-.57-6.26-2.49-1.92 1.92-4.3 2.46-6.26 2.49-.391.694-1.233 2.093-2.57 3.877 3.185.549 5.474.056 7.089-.591 1.131-.453 2.372-.462 3.528-.074 1.713.575 4.133.991 6.999.604z" fill="#307752"/><path d="m46.998 49.79c-2.88 0-6.11-.37-8-1.79 0 0-.9 1.8-3 3.28-1.03.74-2.35 1.39-4 1.72-1.65-.33-2.97-.98-4-1.72-2.1-1.48-3-3.28-3-3.28-1.89 1.42-5.12 1.79-8 1.79-3.22 0-6-.47-6-.47 3.99-3.49 6.48-7.3 7.98-10.25.62-1.21 1.07-2.28 1.38-3.11 2.18.53 4.75.41 6.64-1.96 0 0 0 3 5 5 5-2 5-5 5-5 1.89 2.37 4.46 2.49 6.64 1.96.31.83.76 1.9 1.38 3.11 1.5 2.95 3.99 6.76 7.98 10.25 0 0-2.78.47-6 .47z" fill="#307752"/><path d="m45.018 39.07c-.62-1.21-1.07-2.28-1.38-3.11-2.18.53-4.75.41-6.64-1.96 0 0 0 3-5 5-5-2-5-5-5-5-1.89 2.37-4.46 2.49-6.64 1.96-.31.83-.76 1.9-1.38 3.11-.095.187-.206.386-.309.58 1.568.431 3.415.666 5.43.372 1.002-.146 2.021.176 2.804.818 2.412 1.976 5.095 2.469 5.095 2.469s2.551-.426 5.01-2.411c.823-.664 1.894-.989 2.934-.801 2.059.373 3.911.153 5.468-.291-.134-.248-.272-.499-.392-.736z" fill="#266643"/><path d="m13.998 37c1.52 1.38 3.33 1.93 4.98 2.07-1.5 2.95-3.99 6.76-7.98 10.25-4.34 1.45-10 .12-10 .12 3.39-4.06 5.4-8.13 6.34-10.33 2.02.1 4.61-.25 6.66-2.11z" fill="#266643"/><path d="m19.998 61h-12s3-2 3-4c0-3 0-7.68 0-7.68s2.78.47 6 .47v7.21c0 2 3 4 3 4z" fill="#704b3c"/><path d="m38.998 61h-14s3-1 3-5c0-1.54 0-3.33 0-4.72 1.03.74 2.35 1.39 4 1.72 1.65-.33 2.97-.98 4-1.72v4.72c0 4 3 5 3 5z" fill="#805846"/><path d="m55.998 61h-12s3-2 3-4c0-2.27 0-5.68 0-7.21 3.22 0 6-.47 6-.47s0 4.68 0 7.68c0 2 3 4 3 4z" fill="#704b3c"/><circle cx="43.498" cy="45.5" fill="#266643" r="1.5"/><circle cx="38.998" cy="44" fill="#266643" r="1"/><circle cx="24.498" cy="31.5" fill="#65a183" r="1.5"/><circle cx="26.998" cy="29" fill="#65a183" r="1"/><circle cx="33.998" cy="17" fill="#65a183" r="1"/></g></svg>